<svg xmlns="http://www.w3.org/2000/svg">

    <symbol id="mouse">
        <svg width="2em" height="2em" viewBox="0 0 16 16" class="bi bi-mouse" fill="white"
            xmlns="http://www.w3.org/2000/svg">
            <path fill-rule="evenodd"
                d="M8 3a.5.5 0 0 1 .5.5v2a.5.5 0 0 1-1 0v-2A.5.5 0 0 1 8 3zm4 8V5a4 4 0 0 0-8 0v6a4 4 0 0 0 8 0zM8 0a5 5 0 0 0-5 5v6a5 5 0 0 0 10 0V5a5 5 0 0 0-5-5z" />
        </svg>
    </symbol>

    <symbol id="design">
        <svg width="81" height="84" xmlns="http://www.w3.org/2000/svg" xmlns:xlink="http://www.w3.org/1999/xlink"
            xmlns:svgjs="http://svgjs.com/svgjs" viewBox="0.042 0 80.917 84" fill="#3c3c3c"><svg
                xmlns="http://www.w3.org/2000/svg" width="81" height="84" viewBox="1.999 1.989 79.982 83.029">
                <path paint-order="stroke fill markers" fill-rule="evenodd"
                    d="M79.956 1.989H68.032c-1.125 0-2.025.9-2.025 2.025v4.163H17.86V4.014c0-1.125-.9-2.025-2.024-2.025H4.024c-1.125 0-2.025.9-2.025 2.025v12.263c0 1.125.9 2.025 2.025 2.025h11.924c1.125 0 2.025-.9 2.025-2.025v-4.163h22.161c-.225 4.95-12.262 28.24-19.911 41.965-.45.788-.225 1.8.45 2.475 6.862 5.85 8.55 11.589 9 14.513h-2.588c-1.125 0-2.025.9-2.025 2.026v9.9c0 1.125.9 2.025 2.025 2.025h29.923c1.125 0 2.025-.9 2.025-2.025v-9.9c0-1.126-.9-2.026-2.025-2.026H54.42c.45-2.924 2.138-8.663 9-14.513.675-.562.9-1.687.45-2.475-7.65-13.725-19.686-37.127-19.911-41.965h22.048v4.163c0 1.125.9 2.025 2.025 2.025h11.924c1.125 0 2.025-.9 2.025-2.025V4.014c0-1.125-.9-2.025-2.025-2.025zM13.923 14.252H5.936V5.926h7.987v8.326zm28.123 32.964c1.463 0 2.588 1.125 2.588 2.588s-1.125 2.588-2.588 2.588c-1.462 0-2.587-1.125-2.587-2.588 0-1.35 1.237-2.588 2.587-2.588zm13.05 33.64H29.11v-5.963H55.096v5.962zm-4.613-9.901H33.61c-.45-3.263-2.137-9.788-9.224-16.426 2.7-4.95 10.8-19.8 15.636-30.827v19.914c-2.587.788-4.5 3.262-4.5 6.188a6.53 6.53 0 0 0 6.525 6.525 6.53 6.53 0 0 0 6.525-6.525c0-2.926-1.913-5.288-4.5-6.188V23.59c4.95 11.026 12.937 25.876 15.636 30.939-7.086 6.638-8.774 13.163-9.224 16.426zm27.56-56.703h-7.986v-3.713-.337-.338V6.04h7.987v8.213z" />
            </svg></svg>
    </symbol>

    <symbol id="dev">
        <svg width="80" height="77" xmlns="http://www.w3.org/2000/svg" xmlns:xlink="http://www.w3.org/1999/xlink"
            xmlns:svgjs="http://svgjs.com/svgjs" viewBox="0 0.018 80 76.963" fill="#3c3c3c"><svg
                xmlns="http://www.w3.org/2000/svg" width="80" height="77" viewBox="1.998 1.994 79.002 76.003">
                <path paint-order="stroke fill markers" fill-rule="evenodd"
                    d="M78.921 77.997H4.078a2.09 2.09 0 0 1-2.08-2.098V14.982c0-1.16.93-2.099 2.08-2.099H78.92a2.09 2.09 0 0 1 2.08 2.099v60.917a2.09 2.09 0 0 1-2.08 2.098zM6.156 73.8h70.686V17.08H6.156V73.8zM78.92 17.08H4.078a2.088 2.088 0 0 1-2.08-2.098V4.093c0-1.159.93-2.099 2.08-2.099H78.92a2.09 2.09 0 0 1 2.08 2.1v10.888a2.09 2.09 0 0 1-2.08 2.098zM6.156 12.884h70.686V6.192H6.156v6.692zm5.025-4.815c.803 0 1.454.658 1.454 1.468 0 .811-.651 1.468-1.454 1.468a1.461 1.461 0 0 1-1.455-1.468c0-.81.651-1.468 1.455-1.468zm4.35.001a1.46 1.46 0 0 1 1.454 1.467c0 .81-.651 1.467-1.454 1.467a1.46 1.46 0 0 1-1.453-1.467c0-.81.65-1.467 1.453-1.467zm4.35 0c.803 0 1.454.657 1.454 1.467 0 .811-.65 1.468-1.454 1.468a1.461 1.461 0 0 1-1.454-1.468c0-.81.651-1.468 1.454-1.468zm11.164 43.107c-.466 0-.93-.18-1.286-.539l-5.66-5.712a1.849 1.849 0 0 1 0-2.597l5.65-5.704a1.807 1.807 0 0 1 2.572 0c.71.717.71 1.879 0 2.596l-4.364 4.407 4.374 4.415c.71.717.71 1.88 0 2.596-.355.358-.82.538-1.286.538zm20.917 0c-.465 0-.932-.18-1.286-.539a1.847 1.847 0 0 1 0-2.596l4.365-4.406-4.375-4.415a1.85 1.85 0 0 1 0-2.597 1.807 1.807 0 0 1 2.572 0l5.66 5.713a1.842 1.842 0 0 1 0 2.596l-5.65 5.704a1.8 1.8 0 0 1-1.286.54zm-13.069 4.241c-.149 0-.301-.018-.452-.057a1.837 1.837 0 0 1-1.312-2.233l4.623-18.28a1.822 1.822 0 0 1 2.212-1.326 1.838 1.838 0 0 1 1.314 2.234l-4.624 18.28c-.21.83-.95 1.382-1.76 1.382z" />
                </svg></svg>
    </symbol>
    
    <symbol id="product">
        <svg width="80" height="92" xmlns="http://www.w3.org/2000/svg" xmlns:xlink="http://www.w3.org/1999/xlink"
            xmlns:svgjs="http://svgjs.com/svgjs" viewBox="0.064 0 79.871 92" fill="#3c3c3c"><svg
                xmlns="http://www.w3.org/2000/svg" width="80" height="92" viewBox="1.989 1.013 78.992 90.987">
                <path paint-order="stroke fill markers" fill-rule="evenodd"
                    d="M23.756 39.114c-.402 0-.803-.152-1.11-.457L19.55 35.58a1.552 1.552 0 0 1 0-2.205 1.577 1.577 0 0 1 2.22 0l1.988 1.975 5.086-5.052a1.577 1.577 0 0 1 2.22 0 1.552 1.552 0 0 1 0 2.205l-6.196 6.154c-.308.305-.71.457-1.111.457zm32.555-3.077H37.637c-.866 0-1.57-.698-1.57-1.559s.704-1.559 1.57-1.559h18.674c.866 0 1.57.698 1.57 1.559s-.703 1.559-1.57 1.559zM23.756 65.794c-.402 0-.803-.152-1.11-.456L19.55 62.26a1.553 1.553 0 0 1 0-2.206 1.577 1.577 0 0 1 2.22 0l1.988 1.976 5.086-5.052a1.577 1.577 0 0 1 2.22 0 1.553 1.553 0 0 1 0 2.205l-6.196 6.155c-.308.304-.71.455-1.111.455zm32.555-3.077H37.637c-.866 0-1.57-.697-1.57-1.558 0-.862.704-1.56 1.57-1.56h18.674c.866 0 1.57.698 1.57 1.56 0 .86-.703 1.558-1.57 1.558zm-32.555 16.42c-.402 0-.803-.153-1.11-.457l-3.097-3.078a1.552 1.552 0 0 1 0-2.205 1.577 1.577 0 0 1 2.22 0l1.988 1.976 5.086-5.052a1.577 1.577 0 0 1 2.22 0 1.551 1.551 0 0 1 0 2.205l-6.196 6.154a1.58 1.58 0 0 1-1.111.457zm32.555-3.079H37.637c-.866 0-1.57-.698-1.57-1.559s.704-1.559 1.57-1.559h18.674c.866 0 1.57.698 1.57 1.56 0 .86-.703 1.558-1.57 1.558zM23.756 52.454a1.57 1.57 0 0 1-1.11-.457L19.55 48.92a1.552 1.552 0 0 1 0-2.205 1.577 1.577 0 0 1 2.22 0l1.988 1.974 5.086-5.051a1.577 1.577 0 0 1 2.22 0 1.551 1.551 0 0 1 0 2.205l-6.196 6.154c-.308.305-.71.457-1.111.457zm32.555-3.076H37.637c-.866 0-1.57-.698-1.57-1.56 0-.86.704-1.558 1.57-1.558h18.674c.866 0 1.57.698 1.57 1.559s-.703 1.56-1.57 1.56zm22.577-36.973H60.422c-.22-3.18-2.888-5.686-6.141-5.686h-5.985c-.042-3.149-2.626-5.706-5.816-5.706-3.18 0-5.775 2.557-5.807 5.706H30.68c-3.244 0-5.912 2.505-6.131 5.686H4.08a2.085 2.085 0 0 0-2.092 2.078v75.438c0 1.154.931 2.08 2.092 2.08h74.807a2.079 2.079 0 0 0 2.093-2.08V14.483a2.085 2.085 0 0 0-2.093-2.078zm-50.177.437c0-1.081.88-1.965 1.968-1.965h6.539c2.008 0 3.64-1.622 3.64-3.606v-.478a1.627 1.627 0 0 1 3.255 0v.478c0 1.986 1.632 3.606 3.63 3.606h6.539a1.97 1.97 0 0 1 1.977 1.965v4.26H28.713v-4.26h-.002zm48.085 75H6.173v-71.28h18.353v2.619c0 1.154.931 2.079 2.092 2.079H58.35a2.078 2.078 0 0 0 2.092-2.079v-2.619h16.353v71.28h.002zM42.485 11.14c1.11 0 2.01.894 2.01 1.997 0 1.102-.9 1.996-2.01 1.996-1.11 0-2.01-.894-2.01-1.996 0-1.103.9-1.997 2.01-1.997z" />
            </svg></svg>
    </symbol>


</svg>