<svg xmlns="http://www.w3.org/2000/svg" width="25.062" height="24.781" viewBox="0 0 25.062 24.781">
  <metadata><?xpacket begin="﻿" id="W5M0MpCehiHzreSzNTczkc9d"?>
<x:xmpmeta xmlns:x="adobe:ns:meta/" x:xmptk="Adobe XMP Core 5.6-c142 79.160924, 2017/07/13-01:06:39        ">
   <rdf:RDF xmlns:rdf="http://www.w3.org/1999/02/22-rdf-syntax-ns#">
      <rdf:Description rdf:about=""/>
   </rdf:RDF>
</x:xmpmeta>
                                                                                                    
                                                                                                    
                                                                                                    
                                                                                                    
                                                                                                    
                                                                                                    
                                                                                                    
                                                                                                    
                                                                                                    
                                                                                                    
                                                                                                    
                                                                                                    
                                                                                                    
                                                                                                    
                                                                                                    
                                                                                                    
                                                                                                    
                                                                                                    
                                                                                                    
                                                                                                    
                           
<?xpacket end="w"?></metadata>
<defs>
    <style>
      .cls-1 {
        fill: #fff;
        fill-rule: evenodd;
      }
    </style>
  </defs>
  <path id="Settings" class="cls-1" d="M775.591,94.3a6.022,6.022,0,1,1,6.012-6.022A6.024,6.024,0,0,1,775.591,94.3Zm0-10.037a4.015,4.015,0,1,0,4.008,4.015A4.016,4.016,0,0,0,775.591,84.259ZM772.92,100.29a0.979,0.979,0,0,1-.221-0.025,12.548,12.548,0,0,1-5.026-2.418,1.006,1.006,0,0,1-.16-1.41l0.393-.493a11.04,11.04,0,0,1-1.8-2.261l-0.571.277a1,1,0,0,1-1.338-.465,12.443,12.443,0,0,1-1.25-5.441,1,1,0,0,1,1-1.006h0.623a10.846,10.846,0,0,1,.644-2.826l-0.57-.274a1,1,0,0,1-.47-1.339,12.66,12.66,0,0,1,3.462-4.367,1,1,0,0,1,1.409.155l0.394,0.491a11.047,11.047,0,0,1,2.6-1.264l-0.142-.616a1.006,1.006,0,0,1,.752-1.2,12.7,12.7,0,0,1,5.567-.017,1,1,0,0,1,.759,1.2l-0.137.618a11,11,0,0,1,2.61,1.25l0.392-.495a1,1,0,0,1,.67-0.374,0.977,0.977,0,0,1,.737.211,12.653,12.653,0,0,1,3.489,4.345,1.005,1.005,0,0,1-.461,1.343l-0.569.277a10.846,10.846,0,0,1,.662,2.833l0.614-.008a1,1,0,0,1,1.015,1,12.487,12.487,0,0,1-1.238,5.485,1.008,1.008,0,0,1-.572.511,1,1,0,0,1-.766-0.044l-0.572-.276a11.111,11.111,0,0,1-1.8,2.265l0.393,0.493a1,1,0,0,1-.158,1.411,12.541,12.541,0,0,1-5.02,2.426,1,1,0,0,1-1.2-.754l-0.14-.613a10.516,10.516,0,0,1-2.89,0l-0.138.613a1.011,1.011,0,0,1-.443.627A1,1,0,0,1,772.92,100.29Zm-3.184-3.426a10.549,10.549,0,0,0,2.438,1.174l0.118-.523a1,1,0,0,1,1.2-.758,8.734,8.734,0,0,0,3.977,0,1,1,0,0,1,1.2.755l0.12,0.523a10.588,10.588,0,0,0,2.436-1.178l-0.333-.419a1,1,0,0,1,.156-1.41,9.029,9.029,0,0,0,2.476-3.117,1,1,0,0,1,1.338-.468l0.488,0.235a10.423,10.423,0,0,0,.6-2.671l-0.52.007a1.185,1.185,0,0,1-.716-0.288,1.01,1.01,0,0,1-.3-0.713,8.885,8.885,0,0,0-.908-3.9,1,1,0,0,1,.462-1.341l0.485-.237a10.7,10.7,0,0,0-1.7-2.11l-0.333.421a1,1,0,0,1-1.407.164,8.841,8.841,0,0,0-3.585-1.717,1,1,0,0,1-.758-1.2l0.116-.523a10.76,10.76,0,0,0-2.7.009l0.122,0.524a1,1,0,0,1-.752,1.2,8.952,8.952,0,0,0-3.576,1.734,1,1,0,0,1-1.408-.154l-0.335-.416a10.688,10.688,0,0,0-1.682,2.12l0.487,0.234a1,1,0,0,1,.469,1.339,8.886,8.886,0,0,0-.884,3.862,1.02,1.02,0,0,1-1,1.025H765a10.381,10.381,0,0,0,.605,2.642l0.486-.236a1,1,0,0,1,1.34.466,9.029,9.029,0,0,0,2.481,3.111,1.005,1.005,0,0,1,.159,1.41Z" transform="translate(-762.938 -75.5)"/>
</svg>
