<svg xmlns="http://www.w3.org/2000/svg" width="22.062" height="29.969" viewBox="0 0 22.062 29.969">
  <metadata><?xpacket begin="﻿" id="W5M0MpCehiHzreSzNTczkc9d"?>
<x:xmpmeta xmlns:x="adobe:ns:meta/" x:xmptk="Adobe XMP Core 5.6-c142 79.160924, 2017/07/13-01:06:39        ">
   <rdf:RDF xmlns:rdf="http://www.w3.org/1999/02/22-rdf-syntax-ns#">
      <rdf:Description rdf:about=""/>
   </rdf:RDF>
</x:xmpmeta>
                                                                                                    
                                                                                                    
                                                                                                    
                                                                                                    
                                                                                                    
                                                                                                    
                                                                                                    
                                                                                                    
                                                                                                    
                                                                                                    
                                                                                                    
                                                                                                    
                                                                                                    
                                                                                                    
                                                                                                    
                                                                                                    
                                                                                                    
                                                                                                    
                                                                                                    
                                                                                                    
                           
<?xpacket end="w"?></metadata>
<defs>
    <style>
      .cls-1 {
        fill: #1275b9;
        fill-rule: evenodd;
      }
    </style>
  </defs>
  <path id="Tablet" class="cls-1" d="M461.266,102.975H448.735a4.872,4.872,0,0,1-4.771-4.958V77.944a4.873,4.873,0,0,1,4.771-4.958h12.531a4.873,4.873,0,0,1,4.772,4.958V98.017A4.873,4.873,0,0,1,461.266,102.975ZM448.735,75a2.9,2.9,0,0,0-2.836,2.948V98.017a2.9,2.9,0,0,0,2.836,2.948h12.531a2.9,2.9,0,0,0,2.837-2.948V77.944A2.9,2.9,0,0,0,461.266,75H448.735ZM455,99.818a1.006,1.006,0,1,1,.968-1.005A0.988,0.988,0,0,1,455,99.818Zm0.968-21.388h-1.935a1.006,1.006,0,0,1,0-2.01h1.935A1.006,1.006,0,0,1,455.969,78.431Z" transform="translate(-443.969 -73)"/>
</svg>
