<svg xmlns="http://www.w3.org/2000/svg" width="46.7" height="42.8" viewBox="0 0 46.7 42.8"><metadata><x:xmpmeta xmlns:x="adobe:ns:meta/" x:xmptk="Adobe XMP Core 5.6-c142 79.160924, 2017/07/13-01:06:39        "><rdf:RDF xmlns:rdf="http://www.w3.org/1999/02/22-rdf-syntax-ns#"><rdf:Description rdf:about=""/></rdf:RDF></x:xmpmeta></metadata><defs><>
  </defs><path class="cls-1" d="M637.1 1913a2.7 2.7 0 0 0-2.1-1H607.9a2.7 2.7 0 0 0-2.5 3.5l5 15.6a1.7 1.7 0 0 0 1.6 1.2h20.3a1.7 1.7 0 0 0 1.6-1.3l3.8-15.7A2.7 2.7 0 0 0 637.1 1913Zm-0.6 22.2H610.2a2.1 2.1 0 0 1-2-1.5L601 1911.4a5.1 5.1 0 0 0-4.8-3.5h-1.6a2.4 2.4 0 0 0 0 4.9h1.6a0.2 0.2 0 0 1 0.2l7.2 22.4a7 7 0 0 0 6.7 4.8h26.2A2.4 2.4 0 0 0 636.4 1935.2Zm-24.5 7.7a3.9 3.9 0 1 0 3.9 3.9A3.9 3.9 0 0 0 612 1942.8Zm20.3 0a3.9 3.9 0 1 0 3.9 3.9A3.9 3.9 0 0 0 632.3 1942.8Z" transform="translate(-592.156 -1907.81)"/>
</svg>
