<svg 
 xmlns="http://www.w3.org/2000/svg"
 xmlns:xlink="http://www.w3.org/1999/xlink"
 width="55px" height="55px">
<path fill-rule="evenodd"  fill="rgb(38, 38, 38)"
 d="M54.000,15.897 C51.029,16.449 47.687,17.829 46.115,18.531 C45.611,17.751 45.029,17.031 44.357,16.359 L39.484,11.488 C38.812,10.822 38.086,10.234 37.312,9.736 C38.014,8.158 39.394,4.817 39.946,1.847 C40.138,0.815 41.476,0.521 42.094,1.367 C43.150,2.818 44.195,4.685 43.883,6.082 L51.107,3.185 C52.085,2.789 53.064,3.767 52.668,4.744 L49.763,11.961 C51.161,11.650 53.028,12.694 54.480,13.749 C55.332,14.367 55.032,15.705 54.000,15.897 ZM42.730,17.985 C47.231,22.490 46.769,29.726 42.172,33.697 L31.893,27.812 L37.054,36.823 L18.248,47.388 L11.503,43.752 L14.575,49.451 L5.424,54.593 C4.914,54.875 4.398,55.001 3.906,55.001 C1.758,55.001 0.012,52.613 1.248,50.411 L13.021,29.468 L21.368,34.531 L15.560,24.956 L20.912,15.447 C22.922,11.871 26.583,9.970 30.285,9.970 C32.997,9.970 35.734,10.989 37.858,13.114 L42.730,17.985 Z"/>
</svg>
