<svg 
    xmlns="http://www.w3.org/2000/svg"
    xmlns:xlink="http://www.w3.org/1999/xlink"
    width="47px" height="44px">
    <path fill-rule="evenodd"  fill="rgb(38, 38, 38)"
    d="M44.423,33.041 L18.236,33.041 C15.193,33.041 12.521,31.094 11.586,28.196 L4.378,5.844 C4.346,5.746 4.256,5.680 4.153,5.680 L2.577,5.680 C1.236,5.680 0.150,4.594 0.150,3.252 C0.150,1.911 1.236,0.823 2.577,0.823 L4.153,0.823 C6.371,0.823 8.318,2.243 8.998,4.355 L16.207,26.707 C16.491,27.589 17.308,28.184 18.236,28.184 L44.423,28.184 C45.764,28.184 46.850,29.271 46.850,30.612 C46.850,31.954 45.764,33.041 44.423,33.041 ZM41.802,23.959 C41.623,24.704 40.956,25.230 40.190,25.230 L19.887,25.230 C19.166,25.230 18.528,24.764 18.308,24.076 L13.317,8.469 C13.058,7.659 13.201,6.774 13.702,6.084 C14.204,5.398 15.004,4.991 15.855,4.991 L42.972,4.991 C43.788,4.991 44.559,5.366 45.064,6.006 C45.569,6.647 45.753,7.485 45.563,8.279 L41.802,23.959 ZM19.957,35.837 C22.094,35.837 23.828,37.571 23.828,39.710 C23.828,41.850 22.094,43.582 19.957,43.582 C17.819,43.582 16.086,41.850 16.086,39.710 C16.086,37.571 17.819,35.837 19.957,35.837 ZM40.286,35.837 C42.424,35.837 44.157,37.571 44.157,39.710 C44.157,41.850 42.424,43.582 40.286,43.582 C38.149,43.582 36.416,41.850 36.416,39.710 C36.416,37.571 38.149,35.837 40.286,35.837 Z"/>
</svg>
