<svg width="161" height="71" viewBox="0 0 161 71" fill="none" xmlns="http://www.w3.org/2000/svg">
<path d="M74.3195 50.4514C72.7117 52.4901 70.6603 54.0668 68.7753 55.7913C64.5432 59.6346 60.151 63.3054 55.7403 66.9208C55.3347 67.3402 54.8183 67.6359 54.2512 67.7732C53.6841 67.9106 53.0896 67.8841 52.537 67.6968C46.1981 65.9969 39.773 64.6173 33.4403 62.979C24.4957 60.6755 15.5757 58.2488 6.65571 55.8776C6.31524 55.8424 5.98782 55.7277 5.69995 55.5426C5.41207 55.3575 5.17181 55.1072 4.99861 54.812C5.79944 54.966 6.45858 55.4587 7.24709 55.6866C16.2348 58.2365 25.3027 60.4538 34.352 62.7634C40.3336 64.2847 46.3275 65.7198 52.309 67.2164C53.1776 67.4382 53.4548 67.4074 53.1591 66.3665C52.8664 65.215 52.8791 64.007 53.1961 62.862C53.7259 60.774 53.7382 60.7309 51.6068 60.3121C50.7259 60.1396 49.7587 59.4252 48.8901 60.2197C47.1899 61.7287 45.4466 61.7348 43.5985 60.5338C43.2795 60.3603 42.9455 60.216 42.6005 60.1027C38.467 58.3412 34.4444 56.2225 30.1754 54.8983C22.4259 52.4962 14.5777 50.3898 6.84668 47.9139C5.7748 47.5751 5.25734 47.9139 4.72756 48.7145C3.28607 50.8579 3.64953 52.8781 5.04789 54.8736C3.01502 53.9313 2.70085 49.8971 5.04789 47.6244C5.98528 46.8212 6.97291 46.0785 8.0048 45.401C7.31485 44.668 6.24298 44.6619 5.54071 44.0398C5.50991 43.7503 5.73784 43.6456 5.90416 43.4978C7.70295 41.8349 7.86311 40.2089 6.41546 38.2441C5.47295 36.963 5.44831 36.8829 6.95756 36.3225C8.01096 35.9283 8.52225 35.3986 8.52841 34.2037C8.52841 32.2205 9.76046 31.0749 11.6085 30.5083C13.4566 29.9417 15.1691 29.4797 16.9494 28.9624C17.1958 28.8946 17.5162 28.9624 17.5962 28.599C18.8283 28.6914 19.9433 28.1001 21.1076 27.8414C21.354 27.786 21.5265 27.669 21.471 27.3918C21.4156 27.1146 21.1692 26.8868 20.8858 27.0223C19.7893 27.5396 18.3848 27.4349 17.6209 28.6298C17.0049 28.0939 17.4977 27.8476 17.9043 27.669C18.7297 27.2994 19.586 26.9976 20.4238 26.6589C20.6579 26.5603 20.9844 26.4803 20.9104 26.1169C20.8365 25.7535 20.5162 25.8459 20.2513 25.8274C18.9761 25.7535 17.7872 26.3756 16.5552 26.394L16.4751 26.043C17.5593 25.8212 18.6435 25.5379 19.74 25.3963C20.4361 25.31 20.701 25.2115 20.4484 24.4293C20.0719 23.2085 20.0042 21.9133 20.2513 20.6599C20.3563 20.1666 20.2774 19.6519 20.0295 19.2125C19.2041 17.7713 19.4689 16.2192 19.6353 14.6918C19.7277 13.8049 20.3991 13.6386 21.0213 14.0759C22.5121 15.086 23.4854 14.5316 24.5511 13.3306C28.3705 8.89608 33.7914 7.59651 39.0892 6.2292C45.81 4.42855 52.9384 4.90947 59.3563 7.59651C64.6048 9.75835 67.4077 13.657 67.8512 19.2988C68.1687 22.3256 67.9603 25.3845 67.2352 28.3403C67.0319 29.0794 67.2352 29.3935 67.9991 29.529C69.2927 29.7507 70.5679 30.0956 71.8492 30.3851C72.6993 30.576 73.0381 30.847 72.5515 31.8448C71.6583 33.6433 71.9724 34.6164 73.5494 35.725C74.0361 36.0699 73.8575 36.267 73.5494 36.5257C73.2414 36.7844 72.7178 36.8706 72.5145 37.4434C73.8082 37.6898 75.0772 37.9238 76.34 38.1702C78.453 38.5829 79.2107 39.6237 78.9951 41.7794C78.8965 42.7526 79.4817 43.3869 80.1101 43.9967C80.3565 44.2369 80.8062 44.4217 80.3626 44.8405C78.3606 46.7252 76.6111 48.887 74.3256 50.4699C75.5577 48.7084 77.2825 47.4642 78.7548 45.9553C79.5064 45.1915 80.529 44.5387 79.1121 43.4916C78.9134 43.3006 78.789 43.0452 78.761 42.771C78.6624 42.0689 78.3975 42.0689 77.8862 42.4446C77.1162 43.0112 76.3031 43.504 75.533 44.0644C68.8369 48.9917 62.4672 54.3193 55.8943 59.3882C54.8612 60.2031 54.0912 61.3042 53.6803 62.554C53.2695 63.8039 53.236 65.147 53.5842 66.4157C53.8491 67.4258 54.0832 67.82 55.1181 66.9701C61.3214 61.8642 67.4385 56.6598 73.2907 51.1535C73.5495 50.8702 73.7774 50.4144 74.3195 50.4514ZM63.8841 21.3497C63.9737 21.9679 63.9403 22.5976 63.7859 23.2028C63.6314 23.808 63.3589 24.3768 62.984 24.8764C62.609 25.376 62.1391 25.7966 61.6011 26.1141C61.0632 26.4317 60.4678 26.6398 59.8491 26.7266C57.114 27.2686 54.422 26.7697 51.7485 26.2708C46.6601 25.3285 41.5903 24.3184 36.3479 24.7988C31.1056 25.2792 26.8242 27.2132 23.6825 31.5061C22.4505 33.169 22.087 35.2323 22.8755 36.3163C23.6641 37.4003 25.4875 37.5481 27.5635 36.7782C27.6928 36.729 27.8037 36.6551 27.9331 36.6058C29.124 36.1608 30.3655 35.865 31.6292 35.725C36.2432 35.1522 40.7833 35.725 45.3234 36.4333C48.6376 36.9507 51.9456 37.5666 55.3337 37.3572C61.5986 36.9815 65.6336 33.5016 66.958 27.4164C67.5161 24.654 67.6326 21.8205 67.303 19.0216C66.687 13.3676 63.6993 9.78299 58.4076 7.78128C51.3296 5.12672 44.2392 5.1144 37.044 7.21465C32.2575 8.61276 27.6066 10.2326 24.2246 14.199C23.8119 14.6795 23.1897 15.012 23.43 15.8312L21.2862 14.6979C20.356 14.2052 19.9679 14.4947 19.9679 15.5356C19.9679 18.4119 20.7749 21.2081 20.7872 24.0844C20.7644 24.2666 20.7865 24.4517 20.8516 24.6235C20.9166 24.7953 21.0227 24.9486 21.1606 25.07C21.2984 25.1915 21.4639 25.2774 21.6425 25.3203C21.8212 25.3632 22.0076 25.3618 22.1856 25.3162C22.3026 25.3162 22.4628 25.3593 22.4813 25.3162C22.1979 25.9321 21.625 25.4825 21.4957 25.9937C21.8961 26.4741 22.5429 25.7781 22.9371 26.2708C22.7031 26.7205 21.7051 26.3694 21.9207 27.0407C22.3026 28.1309 23.1528 26.7205 23.7688 27.2255L23.547 27.515C23.2821 27.8476 22.432 27.6074 22.586 28.2294C22.7033 28.5772 22.8914 28.8968 23.1384 29.1682C23.3854 29.4396 23.6861 29.6568 24.0213 29.8062C24.5942 30.108 24.7606 29.4428 25.0501 29.1903C26.9413 27.2745 29.2973 25.8823 31.8879 25.1499C36.4465 23.8626 41.0543 24.109 45.6683 24.7311C49.5308 25.2484 53.3132 26.314 57.2249 26.4679C61.2352 26.6096 62.8307 25.4517 63.8841 21.3497ZM6.87748 37.9793C7.80767 39.827 8.32513 41.4776 6.95756 42.9743C6.11977 43.8858 6.45858 44.1075 7.37645 44.4956C15.3847 47.9139 23.393 51.3753 31.3582 54.8182C35.9126 56.7768 40.4486 58.7292 44.9661 60.6755C45.385 60.8541 45.8285 61.2914 46.2905 60.7186C48.0154 58.5075 47.2577 55.9453 45.2063 55.2247C34.4888 51.5189 24.1215 46.869 14.2266 41.3298C11.8859 39.9897 9.42558 38.87 6.87748 37.9854V37.9793ZM71.9663 31.7463C71.3618 31.8345 70.7814 32.044 70.2599 32.3622C62.227 36.0576 54.1941 39.7387 46.1611 43.4054C43.4753 44.6372 42.7751 46.5835 44.0605 49.2442C44.424 50.0141 44.7381 50.2297 45.5759 49.7801C52.0873 46.2755 58.8081 43.2206 65.5658 40.2212C68.2246 39.1129 70.7685 37.7473 73.1614 36.1439C71.2147 35.0722 71.6336 33.4031 71.9663 31.7463ZM46.8942 60.8356C47.4609 60.54 47.7443 60.4106 48.0154 60.2505C53.7444 56.9246 59.4549 53.5679 65.2024 50.2728C69.4219 47.7784 73.5039 45.0583 77.4304 42.1243C78.0464 41.6747 78.7487 41.2682 78.4776 40.2766C78.071 38.8169 76.0135 37.9793 74.8493 38.9339C69.5884 43.196 63.5637 46.1955 57.6869 49.4044C54.3419 51.2521 50.9107 52.915 47.541 54.6827C47.2084 54.8551 46.3829 54.9414 46.8141 55.5265C48.0092 57.2202 47.7443 58.8647 46.8942 60.8356ZM44.8613 43.4485C40.3151 41.9272 36.1446 40.0426 31.9249 38.3119C31.8037 38.2332 31.6665 38.1824 31.5233 38.163C31.3801 38.1437 31.2344 38.1562 31.0966 38.1998C30.9588 38.2433 30.8324 38.3168 30.7264 38.415C30.6204 38.5132 30.5374 38.6336 30.4834 38.7676C29.5327 40.3263 29.1013 42.1464 29.2514 43.9659C29.2336 44.2779 29.3273 44.586 29.5158 44.8353C29.7042 45.0847 29.9751 45.2589 30.2801 45.327C33.4465 46.4234 36.5882 47.5936 39.7545 48.7022C41.042 49.158 42.3603 49.5214 43.8264 49.9772C42.9578 47.5197 42.502 45.327 44.8613 43.4485ZM57.4159 37.9054L57.3481 37.5604C54.5329 38.1148 51.7423 37.8438 48.9517 37.4496C43.8757 36.7351 38.8305 35.725 33.6682 36.0207C32.2064 36.0351 30.7543 36.2591 29.3561 36.6859C29.4848 36.8213 29.6273 36.9431 29.7811 37.0492C34.7894 39.1741 39.8408 41.2005 44.9599 43.0359C45.1259 43.109 45.3052 43.1468 45.4866 43.1468C45.668 43.1468 45.8473 43.109 46.0133 43.0359L57.4159 37.9054ZM19.3519 41.3729C19.108 40.0762 19.2071 38.7384 19.6393 37.4917C20.0714 36.2451 20.8218 35.1329 21.816 34.2653C21.0768 34.0005 20.5408 33.7849 19.9679 33.6125C17.7194 32.8919 15.4895 32.122 13.1917 31.4876C10.5243 30.7485 8.97195 31.9249 8.77482 34.6842C8.7471 35.5945 8.92393 36.4995 9.29228 37.3326C9.33603 37.4838 9.41451 37.6226 9.52146 37.7381C9.62842 37.8536 9.76089 37.9425 9.9083 37.9977L19.3519 41.3729ZM12.3169 30.7054L16.5921 32.0912C18.1383 32.5901 19.6722 33.1074 21.2431 33.5878C21.5388 33.6802 22.0378 34.0682 22.1425 33.5016C22.3643 32.2698 24.0521 31.2967 23.5347 30.2496C22.4197 28.0139 21.8283 28.0385 19.6599 29.4243C19.432 29.5721 19.2164 29.7384 18.9761 29.8678C18.8899 29.917 18.7482 29.8678 18.6496 29.8678C18.5511 29.4243 19.2164 29.3873 19.0193 28.8577L12.3169 30.7054ZM6.15673 47.3595C12.7851 49.4228 19.278 51.4553 25.8694 53.106C25.4957 52.8011 25.0809 52.5502 24.6374 52.3607C20.0234 50.3713 15.3478 48.5175 10.82 46.3495C8.86106 45.4194 7.61054 45.8567 6.15673 47.3595ZM67.6788 49.5707L67.494 49.392L50.0482 59.5176C51.3604 59.8378 52.2228 60.0719 53.1283 60.269C53.341 60.3437 53.5686 60.3659 53.7917 60.3338C54.0148 60.3016 54.2268 60.216 54.4097 60.0842C58.8163 56.5694 63.2414 53.0649 67.6849 49.5707H67.6788ZM26.2329 42.8326C25.7893 44.1445 27.1076 44.1075 27.9516 44.4771C28.5183 44.7235 28.8756 44.7419 28.8078 43.9105C28.6475 42.0031 29.1147 40.0956 30.1384 38.4781C30.274 38.2626 30.6189 38.0285 30.2863 37.659C30.1076 37.4609 29.8846 37.3077 29.6355 37.2121C29.3864 37.1165 29.1182 37.081 28.8528 37.1086C28.5874 37.1362 28.3323 37.2261 28.1083 37.371C27.8842 37.5159 27.6975 37.7116 27.5635 37.9423C26.701 39.3651 26.4238 40.9603 26.2329 42.8326ZM71.8615 31.1304V30.8409C70.494 30.5514 69.1264 30.225 67.7527 29.9786C67.3954 29.9109 66.8964 29.6275 66.6747 30.1695C65.9101 31.8675 64.942 33.4662 63.7917 34.9305L71.8615 31.1304ZM22.2226 40.3074H22.2534C22.2102 40.8012 22.2102 41.2979 22.2534 41.7917C22.4567 42.8881 23.4854 43.0236 24.2493 43.0236C25.0131 43.0236 24.5265 42.229 24.5573 41.7917C24.6485 40.6763 24.8825 39.5772 25.2534 38.5213C25.3396 38.2749 25.6353 37.9916 25.1487 37.7452C23.4238 36.8521 22.4258 37.388 22.2472 39.3589C22.1733 39.6607 22.2226 39.9933 22.2226 40.3074ZM22.087 42.1551C21.046 39.7839 23.1404 37.4311 21.8037 35.0106C21.1386 35.5785 20.6064 36.2854 20.2445 37.0814C19.8825 37.8774 19.6998 38.7432 19.7092 39.6176C19.6414 41.5084 19.857 41.7733 22.087 42.1674V42.1551ZM25.5368 43.5409C25.9249 41.5331 26.1528 39.519 27.1446 37.6528C26.2082 37.4188 25.9125 37.9177 25.6908 38.5767C25.1979 40.2212 24.5142 41.8533 25.5368 43.5532V43.5409Z" fill="white"/>
<path d="M37.2966 18.1038C37.4717 17.2803 37.5462 16.4385 37.5184 15.597C37.5184 14.7348 37.1796 14.4946 36.3418 14.7533C35.166 15.1963 34.0959 15.8802 33.2001 16.7611C33.6559 15.4308 36.157 13.8232 37.2781 13.9957C37.4079 14.0173 37.5306 14.0702 37.6354 14.1497C38.233 14.6609 38.0913 17.2723 37.2966 18.1038Z" fill="white"/>
<path d="M23.276 22.8221C24.1508 23.5057 24.9639 23.1362 25.8571 22.6558C25.1733 24.0046 24.1692 24.0539 23.276 22.8221Z" fill="white"/>
<path d="M29.4977 23.647C29.1404 24.3429 28.5922 24.7618 28.623 25.5317C28.2472 24.9527 28.1179 24.2998 27.5942 23.7948C28.2719 23.9057 28.8817 24.2937 29.4977 23.647Z" fill="white"/>
<path d="M34.0687 22.2554C33.4527 23.4872 32.5163 23.4872 31.4075 22.3293C32.4054 22.6249 33.2617 23.0314 34.0687 22.2554Z" fill="white"/>
<path d="M95.4133 34.2555C95.1146 34.2555 94.7999 34.1382 94.4693 33.9035C94.1386 33.6688 93.9039 33.4022 93.7653 33.1035C93.6373 32.8262 93.5039 31.9462 93.3653 30.4635C93.2373 28.9808 93.1733 27.8768 93.1733 27.1515V26.3035C93.1626 26.0582 93.1573 25.7862 93.1573 25.4875C93.1573 24.9328 93.1893 24.3835 93.2533 23.8395C93.2959 23.5728 93.3493 23.3435 93.4133 23.1515C93.4879 22.9595 93.5893 22.7728 93.7173 22.5915C93.9519 22.2288 94.3039 21.9888 94.7733 21.8715C95.0186 21.8075 95.2906 21.7755 95.5893 21.7755C95.7919 21.7755 95.9946 21.8342 96.1973 21.9515C96.4106 22.0688 96.5173 22.2075 96.5173 22.3675C96.5173 22.4848 96.4319 22.5435 96.2613 22.5435C96.1973 22.5435 96.0746 22.5062 95.8933 22.4315C95.7333 22.3568 95.5893 22.3195 95.4613 22.3195C95.1626 22.3195 94.8906 22.3835 94.6453 22.5115C94.4106 22.6288 94.2239 22.7888 94.0853 22.9915C93.9679 23.1622 93.8666 23.3968 93.7813 23.6955C93.6959 23.9942 93.6426 24.2928 93.6213 24.5915C93.5893 24.8582 93.5733 25.1782 93.5733 25.5515L93.5893 26.4475C93.5999 26.7035 93.6053 26.9808 93.6053 27.2795C93.6053 28.0155 93.6799 29.0982 93.8293 30.5275C93.9786 31.9568 94.1226 32.7835 94.2613 33.0075C94.3893 33.2102 94.5759 33.3648 94.8213 33.4715C95.0773 33.5782 95.3439 33.6315 95.6213 33.6315C96.1119 33.6315 96.4853 33.4768 96.7413 33.1675C96.8373 33.0395 96.9386 32.9755 97.0453 32.9755C97.1413 32.9755 97.1893 33.0502 97.1893 33.1995C97.1893 33.3915 97.1306 33.5622 97.0133 33.7115C96.8959 33.8502 96.7359 33.9568 96.5333 34.0315C96.1919 34.1808 95.8186 34.2555 95.4133 34.2555ZM100.279 34.3035C99.0305 34.3035 98.4065 32.3408 98.4065 28.4155V27.8555C98.4065 24.8795 98.7905 23.3915 99.5585 23.3915C99.6119 23.3915 99.6865 23.4075 99.7825 23.4395C100.124 23.5568 100.46 23.6315 100.791 23.6635C100.993 23.7062 101.196 23.9142 101.399 24.2875C101.623 24.6715 101.788 25.1782 101.895 25.8075C102.012 26.4368 102.071 27.0822 102.071 27.7435L102.039 27.8235C102.039 28.1755 102.044 28.4902 102.055 28.7675L102.071 29.7275C102.071 30.2715 102.049 30.7622 102.007 31.1995C101.943 31.8608 101.836 32.4315 101.687 32.9115C101.591 33.1995 101.479 33.4395 101.351 33.6315C101.233 33.8235 101.084 33.9835 100.903 34.1115C100.732 34.2395 100.524 34.3035 100.279 34.3035ZM100.215 33.8395C100.631 33.8395 100.94 33.5462 101.143 32.9595C101.345 32.3622 101.468 31.7542 101.511 31.1355C101.553 30.4955 101.575 29.9835 101.575 29.5995C101.575 29.1728 101.543 28.5435 101.479 27.7115C101.425 26.7835 101.399 26.1542 101.399 25.8235L101.335 25.6955L101.367 25.6155C101.367 25.1462 101.233 24.7408 100.967 24.3995C100.711 24.0582 100.396 23.8875 100.023 23.8875C99.5319 23.8875 99.2385 24.1222 99.1425 24.5915C99.1212 24.7515 99.0999 24.9808 99.0785 25.2795C99.0785 26.0688 99.0465 26.6075 98.9825 26.8955C98.9825 27.0555 98.9665 27.3062 98.9345 27.6475L98.9025 28.3995C98.9025 28.6342 98.9079 28.8422 98.9185 29.0235L98.9345 29.6635C98.9345 30.1648 98.9772 30.7408 99.0625 31.3915C99.1265 31.8715 99.2012 32.2768 99.2865 32.6075C99.3719 32.9382 99.4945 33.2208 99.6545 33.4555C99.8145 33.7115 100.001 33.8395 100.215 33.8395ZM104.322 34.1915C104.204 34.1702 104.092 34.1222 103.986 34.0475C103.879 33.9835 103.82 33.9035 103.81 33.8075L103.89 33.6795C103.932 33.6795 104.028 33.6955 104.178 33.7275C104.295 33.7702 104.391 33.7915 104.466 33.7915C104.7 33.7915 104.908 33.7008 105.09 33.5195C105.271 33.3275 105.41 33.0822 105.506 32.7835C105.655 32.2288 105.73 31.7062 105.73 31.2155C105.73 30.4795 105.506 29.6902 105.058 28.8475C104.78 28.3568 104.567 27.9675 104.418 27.6795C104.268 27.3915 104.135 27.0608 104.018 26.6875C103.879 26.2502 103.81 25.8288 103.81 25.4235C103.81 25.0395 103.906 24.5862 104.098 24.0635C104.194 23.8182 104.327 23.6208 104.498 23.4715C104.679 23.3115 104.871 23.2315 105.074 23.2315C105.212 23.2315 105.346 23.2795 105.474 23.3755C105.612 23.4715 105.682 23.5728 105.682 23.6795C105.682 23.7648 105.612 23.8075 105.474 23.8075C105.431 23.8075 105.378 23.7915 105.314 23.7595C105.25 23.7275 105.191 23.7115 105.138 23.7115C104.978 23.7115 104.834 23.7755 104.706 23.9035C104.578 24.0315 104.482 24.1968 104.418 24.3995C104.29 24.7942 104.226 25.1568 104.226 25.4875C104.226 25.6902 104.252 25.8982 104.306 26.1115C104.316 26.1755 104.327 26.2288 104.338 26.2715C104.348 26.3142 104.354 26.3462 104.354 26.3675L104.45 26.6875L104.53 26.9755L104.658 27.2635C104.69 27.3382 104.722 27.4075 104.754 27.4715C104.796 27.5248 104.834 27.5782 104.866 27.6315L105.058 27.9675C105.1 28.0315 105.191 28.1862 105.33 28.4315C105.468 28.6662 105.596 28.9168 105.714 29.1835C105.82 29.4075 105.9 29.6208 105.954 29.8235C106.007 30.0155 106.055 30.2502 106.098 30.5275C106.13 30.7942 106.146 31.0875 106.146 31.4075C106.146 31.9195 106.076 32.3995 105.938 32.8475C105.746 33.3808 105.468 33.7542 105.106 33.9675C104.903 34.0955 104.668 34.1595 104.402 34.1595L104.322 34.1915ZM105.602 23.7595C105.602 23.7488 105.596 23.7435 105.586 23.7435V23.7595H105.602ZM108.947 33.9995C108.702 33.9995 108.558 33.9462 108.515 33.8395C108.462 33.8395 108.419 33.8448 108.387 33.8555H108.259C108.025 33.8555 107.875 33.8022 107.811 33.6955C107.811 33.6208 107.854 33.5568 107.939 33.5035L108.019 33.4235H108.483L108.547 33.3595L108.579 33.2155L108.595 33.0235C108.595 32.3728 108.579 31.7915 108.547 31.2795L108.515 30.6875L108.483 29.5195C108.483 29.1035 108.499 28.4795 108.531 27.6475L108.563 25.7915C108.563 24.9808 108.537 24.3622 108.483 23.9355C108.387 23.9035 108.227 23.8875 108.003 23.8875L107.827 23.9035C107.763 23.9142 107.694 23.9195 107.619 23.9195C107.417 23.9195 107.315 23.8288 107.315 23.6475C107.315 23.6048 107.363 23.5622 107.459 23.5195C107.555 23.4768 107.635 23.4555 107.699 23.4555C108.105 23.4555 108.51 23.4768 108.915 23.5195C109.161 23.5302 109.406 23.5782 109.651 23.6635C109.843 23.7275 109.939 23.8182 109.939 23.9355C109.939 23.9568 109.923 23.9995 109.891 24.0635L109.523 24.0955C109.449 24.0315 109.294 23.9995 109.059 23.9995L108.979 24.0475C109.011 24.1435 109.027 24.4262 109.027 24.8955C109.027 25.5995 109.022 26.2342 109.011 26.7995L108.979 28.7035C108.979 29.1835 109.001 29.7648 109.043 30.4475C109.075 31.2262 109.091 31.8128 109.091 32.2075V32.4155C109.081 32.4902 109.075 32.5862 109.075 32.7035C109.075 32.9488 109.091 33.0982 109.123 33.1515L109.107 33.1835C109.107 33.2902 109.225 33.3435 109.459 33.3435C109.555 33.3435 109.635 33.3382 109.699 33.3275H109.939C110.249 33.3275 110.403 33.4022 110.403 33.5515C110.403 33.6475 110.371 33.7275 110.307 33.7915C110.243 33.8448 110.158 33.8715 110.051 33.8715C109.955 33.8715 109.87 33.8608 109.795 33.8395C109.71 33.8288 109.619 33.8235 109.523 33.8235C109.459 33.8235 109.363 33.8502 109.235 33.9035C109.107 33.9675 109.011 33.9995 108.947 33.9995ZM115.96 34.0635C115.875 34.0635 115.811 34.0315 115.768 33.9675C115.736 33.9035 115.704 33.8075 115.672 33.6795C115.661 33.5942 115.64 33.5195 115.608 33.4555L115.624 33.4075C115.539 32.9062 115.357 32.2928 115.08 31.5675L114.792 30.7355C114.771 30.7142 114.669 30.4422 114.488 29.9195L114.36 29.5355C113.4 26.5702 112.797 24.9648 112.552 24.7195C112.467 25.0075 112.424 25.3808 112.424 25.8395C112.424 26.0848 112.429 26.2982 112.44 26.4795L112.456 27.1035L112.44 27.4875C112.429 27.6048 112.424 27.7328 112.424 27.8715C112.424 28.1062 112.435 28.3088 112.456 28.4795C112.477 28.8208 112.488 28.9915 112.488 28.9915H112.44C112.44 30.7728 112.477 31.7542 112.552 31.9355V33.3755C112.595 33.4608 112.616 33.5728 112.616 33.7115C112.616 33.7968 112.584 33.8715 112.52 33.9355C112.467 33.9995 112.397 34.0315 112.312 34.0315C112.088 34.0315 111.976 33.7435 111.976 33.1675L112.008 32.6555C112.029 32.4955 112.04 32.3195 112.04 32.1275C112.04 31.6155 112.024 30.8475 111.992 29.8235C111.96 28.7995 111.944 28.0315 111.944 27.5195C111.944 27.2102 111.96 26.7355 111.992 26.0955C112.024 25.4662 112.04 24.9968 112.04 24.6875V24.4795C112.04 23.9568 112.136 23.6155 112.328 23.4555L112.376 23.5035L112.536 23.4715C112.579 23.4822 112.627 23.5142 112.68 23.5675C112.723 23.6102 112.744 23.6582 112.744 23.7115L112.776 23.8075C112.776 23.8288 112.776 23.8502 112.776 23.8715C112.787 23.8822 112.792 23.8875 112.792 23.8875C112.963 24.6448 113.347 25.7062 113.944 27.0715C114.552 28.5115 114.931 29.4662 115.08 29.9355C115.187 30.3088 115.272 30.6395 115.336 30.9275C115.539 31.8342 115.779 32.5328 116.056 33.0235L116.088 32.9755C116.333 30.6075 116.456 27.7008 116.456 24.2555L116.44 24.0635C116.429 24.0102 116.424 23.9408 116.424 23.8555C116.424 23.6315 116.499 23.5195 116.648 23.5195C116.744 23.5195 116.824 23.5675 116.888 23.6635C116.963 23.7595 117 23.8662 117 23.9835V25.0555L116.92 25.1835C116.92 26.1968 116.861 27.8608 116.744 30.1755C116.627 32.4902 116.515 33.7488 116.408 33.9515L116.136 34.0155V34.0315L116.12 34.0155L115.96 34.0635ZM119.544 34.2075C119.352 34.2075 119.245 34.0955 119.224 33.8715V33.6635C119.234 33.6102 119.24 33.5462 119.24 33.4715L119.176 33.4075C119.261 33.1835 119.304 32.9648 119.304 32.7515C119.304 32.5062 119.288 32.1542 119.256 31.6955L119.224 30.6395C119.224 30.1062 119.24 29.3062 119.272 28.2395C119.314 27.2902 119.336 26.4848 119.336 25.8235L119.304 24.8635C119.282 24.5755 119.272 24.2555 119.272 23.9035C119.272 23.7435 119.309 23.6315 119.384 23.5675C119.458 23.4928 119.576 23.4555 119.736 23.4555C119.842 23.4555 119.928 23.4875 119.992 23.5515C120.013 23.5622 120.168 23.5835 120.456 23.6155C120.722 23.6475 120.952 23.6955 121.144 23.7595C121.346 23.8235 121.448 23.9035 121.448 23.9995C121.448 24.1062 121.346 24.2128 121.144 24.3195C120.536 24.1168 120.104 24.0155 119.848 24.0155L119.768 24.1115C119.778 24.2075 119.784 24.4368 119.784 24.7995C119.784 25.2582 119.773 25.6688 119.752 26.0315C119.741 26.4048 119.736 26.8208 119.736 27.2795C119.736 27.5782 119.81 27.7275 119.96 27.7275L120.216 27.7115C120.301 27.7008 120.392 27.6955 120.488 27.6955C120.904 27.6955 121.112 27.7915 121.112 27.9835C121.112 28.1008 121.085 28.2022 121.032 28.2875C120.978 28.3622 120.898 28.3995 120.792 28.3995C120.632 28.3995 120.509 28.3568 120.424 28.2715L119.912 28.1915H119.832L119.752 28.2715V28.3195C119.773 28.5008 119.784 28.9222 119.784 29.5835C119.784 29.9995 119.778 30.3782 119.768 30.7195L119.752 31.8555C119.752 32.2715 119.768 32.6982 119.8 33.1355C119.81 33.3808 119.864 33.5462 119.96 33.6315C120.056 33.7062 120.232 33.7435 120.488 33.7435L120.776 33.7275C120.872 33.7168 120.978 33.7115 121.096 33.7115C121.405 33.7115 121.56 33.7808 121.56 33.9195C121.56 34.1115 121.325 34.2075 120.856 34.2075H119.544ZM123.509 34.1915C123.392 34.1702 123.28 34.1222 123.173 34.0475C123.067 33.9835 123.008 33.9035 122.997 33.8075L123.077 33.6795C123.12 33.6795 123.216 33.6955 123.365 33.7275C123.483 33.7702 123.579 33.7915 123.653 33.7915C123.888 33.7915 124.096 33.7008 124.277 33.5195C124.459 33.3275 124.597 33.0822 124.693 32.7835C124.843 32.2288 124.917 31.7062 124.917 31.2155C124.917 30.4795 124.693 29.6902 124.245 28.8475C123.968 28.3568 123.755 27.9675 123.605 27.6795C123.456 27.3915 123.323 27.0608 123.205 26.6875C123.067 26.2502 122.997 25.8288 122.997 25.4235C122.997 25.0395 123.093 24.5862 123.285 24.0635C123.381 23.8182 123.515 23.6208 123.685 23.4715C123.867 23.3115 124.059 23.2315 124.261 23.2315C124.4 23.2315 124.533 23.2795 124.661 23.3755C124.8 23.4715 124.869 23.5728 124.869 23.6795C124.869 23.7648 124.8 23.8075 124.661 23.8075C124.619 23.8075 124.565 23.7915 124.501 23.7595C124.437 23.7275 124.379 23.7115 124.325 23.7115C124.165 23.7115 124.021 23.7755 123.893 23.9035C123.765 24.0315 123.669 24.1968 123.605 24.3995C123.477 24.7942 123.413 25.1568 123.413 25.4875C123.413 25.6902 123.44 25.8982 123.493 26.1115C123.504 26.1755 123.515 26.2288 123.525 26.2715C123.536 26.3142 123.541 26.3462 123.541 26.3675L123.637 26.6875L123.717 26.9755L123.845 27.2635C123.877 27.3382 123.909 27.4075 123.941 27.4715C123.984 27.5248 124.021 27.5782 124.053 27.6315L124.245 27.9675C124.288 28.0315 124.379 28.1862 124.517 28.4315C124.656 28.6662 124.784 28.9168 124.901 29.1835C125.008 29.4075 125.088 29.6208 125.141 29.8235C125.195 30.0155 125.243 30.2502 125.285 30.5275C125.317 30.7942 125.333 31.0875 125.333 31.4075C125.333 31.9195 125.264 32.3995 125.125 32.8475C124.933 33.3808 124.656 33.7542 124.293 33.9675C124.091 34.0955 123.856 34.1595 123.589 34.1595L123.509 34.1915ZM124.789 23.7595C124.789 23.7488 124.784 23.7435 124.773 23.7435V23.7595H124.789ZM127.134 34.1915C127.017 34.1702 126.905 34.1222 126.798 34.0475C126.692 33.9835 126.633 33.9035 126.622 33.8075L126.702 33.6795C126.745 33.6795 126.841 33.6955 126.99 33.7275C127.108 33.7702 127.204 33.7915 127.278 33.7915C127.513 33.7915 127.721 33.7008 127.902 33.5195C128.084 33.3275 128.222 33.0822 128.318 32.7835C128.468 32.2288 128.542 31.7062 128.542 31.2155C128.542 30.4795 128.318 29.6902 127.87 28.8475C127.593 28.3568 127.38 27.9675 127.23 27.6795C127.081 27.3915 126.948 27.0608 126.83 26.6875C126.692 26.2502 126.622 25.8288 126.622 25.4235C126.622 25.0395 126.718 24.5862 126.91 24.0635C127.006 23.8182 127.14 23.6208 127.31 23.4715C127.492 23.3115 127.684 23.2315 127.886 23.2315C128.025 23.2315 128.158 23.2795 128.286 23.3755C128.425 23.4715 128.494 23.5728 128.494 23.6795C128.494 23.7648 128.425 23.8075 128.286 23.8075C128.244 23.8075 128.19 23.7915 128.126 23.7595C128.062 23.7275 128.004 23.7115 127.95 23.7115C127.79 23.7115 127.646 23.7755 127.518 23.9035C127.39 24.0315 127.294 24.1968 127.23 24.3995C127.102 24.7942 127.038 25.1568 127.038 25.4875C127.038 25.6902 127.065 25.8982 127.118 26.1115C127.129 26.1755 127.14 26.2288 127.15 26.2715C127.161 26.3142 127.166 26.3462 127.166 26.3675L127.262 26.6875L127.342 26.9755L127.47 27.2635C127.502 27.3382 127.534 27.4075 127.566 27.4715C127.609 27.5248 127.646 27.5782 127.678 27.6315L127.87 27.9675C127.913 28.0315 128.004 28.1862 128.142 28.4315C128.281 28.6662 128.409 28.9168 128.526 29.1835C128.633 29.4075 128.713 29.6208 128.766 29.8235C128.82 30.0155 128.868 30.2502 128.91 30.5275C128.942 30.7942 128.958 31.0875 128.958 31.4075C128.958 31.9195 128.889 32.3995 128.75 32.8475C128.558 33.3808 128.281 33.7542 127.918 33.9675C127.716 34.0955 127.481 34.1595 127.214 34.1595L127.134 34.1915ZM128.414 23.7595C128.414 23.7488 128.409 23.7435 128.398 23.7435V23.7595H128.414ZM93.5093 54.1915C93.3919 54.1702 93.2799 54.1222 93.1733 54.0475C93.0666 53.9835 93.0079 53.9035 92.9973 53.8075L93.0773 53.6795C93.1199 53.6795 93.2159 53.6955 93.3653 53.7275C93.4826 53.7702 93.5786 53.7915 93.6533 53.7915C93.8879 53.7915 94.0959 53.7008 94.2773 53.5195C94.4586 53.3275 94.5973 53.0822 94.6933 52.7835C94.8426 52.2288 94.9173 51.7062 94.9173 51.2155C94.9173 50.4795 94.6933 49.6902 94.2453 48.8475C93.9679 48.3568 93.7546 47.9675 93.6053 47.6795C93.4559 47.3915 93.3226 47.0608 93.2053 46.6875C93.0666 46.2502 92.9973 45.8288 92.9973 45.4235C92.9973 45.0395 93.0933 44.5862 93.2853 44.0635C93.3813 43.8182 93.5146 43.6208 93.6853 43.4715C93.8666 43.3115 94.0586 43.2315 94.2613 43.2315C94.3999 43.2315 94.5333 43.2795 94.6613 43.3755C94.7999 43.4715 94.8693 43.5728 94.8693 43.6795C94.8693 43.7648 94.7999 43.8075 94.6613 43.8075C94.6186 43.8075 94.5653 43.7915 94.5013 43.7595C94.4373 43.7275 94.3786 43.7115 94.3253 43.7115C94.1653 43.7115 94.0213 43.7755 93.8933 43.9035C93.7653 44.0315 93.6693 44.1968 93.6053 44.3995C93.4773 44.7942 93.4133 45.1568 93.4133 45.4875C93.4133 45.6902 93.4399 45.8982 93.4933 46.1115C93.5039 46.1755 93.5146 46.2288 93.5253 46.2715C93.5359 46.3142 93.5413 46.3462 93.5413 46.3675L93.6373 46.6875L93.7173 46.9755L93.8453 47.2635C93.8773 47.3382 93.9093 47.4075 93.9413 47.4715C93.9839 47.5248 94.0213 47.5782 94.0533 47.6315L94.2453 47.9675C94.2879 48.0315 94.3786 48.1862 94.5173 48.4315C94.6559 48.6662 94.7839 48.9168 94.9013 49.1835C95.0079 49.4075 95.0879 49.6208 95.1413 49.8235C95.1946 50.0155 95.2426 50.2502 95.2853 50.5275C95.3173 50.7942 95.3333 51.0875 95.3333 51.4075C95.3333 51.9195 95.2639 52.3995 95.1253 52.8475C94.9333 53.3808 94.6559 53.7542 94.2933 53.9675C94.0906 54.0955 93.8559 54.1595 93.5893 54.1595L93.5093 54.1915ZM94.7893 43.7595C94.7893 43.7488 94.7839 43.7435 94.7733 43.7435V43.7595H94.7893ZM98.3268 53.7755L98.3108 53.1835C98.3001 53.0128 98.2948 52.8208 98.2948 52.6075C98.2948 52.5008 98.3001 52.4102 98.3108 52.3355L98.3268 52.0475C98.3268 51.9408 98.3054 51.8128 98.2628 51.6635C98.2628 50.9488 98.2094 49.6208 98.1028 47.6795C97.9961 45.8022 97.9374 44.5275 97.9268 43.8555C97.2654 43.8555 96.8228 43.8395 96.5988 43.8075C96.3854 43.7542 96.2788 43.6688 96.2788 43.5515C96.3321 43.4342 96.4334 43.3755 96.5828 43.3755C96.9028 43.3755 97.3668 43.3968 97.9748 43.4395C98.5294 43.4928 98.9934 43.5195 99.3668 43.5195H99.7028L100.039 43.5035C100.231 43.5035 100.327 43.5728 100.327 43.7115C100.327 43.7755 100.289 43.8288 100.215 43.8715C100.151 43.9035 100.071 43.9195 99.9748 43.9195C99.7614 43.9195 99.5374 43.9088 99.3028 43.8875L98.6148 43.8555C98.5721 43.8555 98.5508 43.8715 98.5508 43.9035C98.5401 43.9355 98.5348 44.0368 98.5348 44.2075C98.5348 45.2422 98.5988 46.8102 98.7268 48.9115C98.8441 51.0875 98.9028 52.6502 98.9028 53.5995C98.9028 53.6742 98.8548 53.7435 98.7588 53.8075C98.6734 53.8715 98.5881 53.9035 98.5028 53.9035L98.3268 53.7755ZM103.685 54.3035C102.437 54.3035 101.813 52.3408 101.813 48.4155V47.8555C101.813 44.8795 102.197 43.3915 102.965 43.3915C103.018 43.3915 103.093 43.4075 103.189 43.4395C103.53 43.5568 103.866 43.6315 104.197 43.6635C104.399 43.7062 104.602 43.9142 104.805 44.2875C105.029 44.6715 105.194 45.1782 105.301 45.8075C105.418 46.4368 105.477 47.0822 105.477 47.7435L105.445 47.8235C105.445 48.1755 105.45 48.4902 105.461 48.7675L105.477 49.7275C105.477 50.2715 105.455 50.7622 105.413 51.1995C105.349 51.8608 105.242 52.4315 105.093 52.9115C104.997 53.1995 104.885 53.4395 104.757 53.6315C104.639 53.8235 104.49 53.9835 104.309 54.1115C104.138 54.2395 103.93 54.3035 103.685 54.3035ZM103.621 53.8395C104.037 53.8395 104.346 53.5462 104.549 52.9595C104.751 52.3622 104.874 51.7542 104.917 51.1355C104.959 50.4955 104.981 49.9835 104.981 49.5995C104.981 49.1728 104.949 48.5435 104.885 47.7115C104.831 46.7835 104.805 46.1542 104.805 45.8235L104.741 45.6955L104.773 45.6155C104.773 45.1462 104.639 44.7408 104.373 44.3995C104.117 44.0582 103.802 43.8875 103.429 43.8875C102.938 43.8875 102.645 44.1222 102.549 44.5915C102.527 44.7515 102.506 44.9808 102.485 45.2795C102.485 46.0688 102.453 46.6075 102.389 46.8955C102.389 47.0555 102.373 47.3062 102.341 47.6475L102.309 48.3995C102.309 48.6342 102.314 48.8422 102.325 49.0235L102.341 49.6635C102.341 50.1648 102.383 50.7408 102.469 51.3915C102.533 51.8715 102.607 52.2768 102.693 52.6075C102.778 52.9382 102.901 53.2208 103.061 53.4555C103.221 53.7115 103.407 53.8395 103.621 53.8395ZM110 54.1915C109.872 54.0528 109.733 53.6848 109.584 53.0875C109.435 52.4902 109.296 51.8182 109.168 51.0715C109.083 50.4635 108.96 49.8608 108.8 49.2635C108.672 48.7302 108.549 48.4635 108.432 48.4635H108.384C108.149 48.4635 108.032 48.5382 108.032 48.6875C108.032 49.4555 108.075 50.6235 108.16 52.1915C108.203 53.1515 108.251 53.7115 108.304 53.8715L108.176 54.1435H107.952L107.824 54.0155C107.653 49.0875 107.568 45.7275 107.568 43.9355C107.568 43.8182 107.573 43.7222 107.584 43.6475C107.605 43.5728 107.643 43.5035 107.696 43.4395C107.739 43.3648 107.813 43.3275 107.92 43.3275C108.464 43.3275 108.901 43.4608 109.232 43.7275C109.563 43.9942 109.728 44.3782 109.728 44.8795V46.0475C109.728 46.2502 109.659 46.5222 109.52 46.8635C109.392 47.2048 109.248 47.5195 109.088 47.8075L108.88 48.2075C108.997 48.7515 109.227 49.7328 109.568 51.1515C109.92 52.5595 110.112 53.3062 110.144 53.3915C110.155 53.4022 110.165 53.4288 110.176 53.4715C110.197 53.5142 110.235 53.5782 110.288 53.6635C110.363 53.8128 110.4 53.9408 110.4 54.0475C110.4 54.1968 110.341 54.2715 110.224 54.2715L110 54.1915ZM108.112 48.0635C108.315 48.0635 108.496 47.9622 108.656 47.7595C108.816 47.5568 108.944 47.2955 109.04 46.9755C109.211 46.3248 109.296 45.8075 109.296 45.4235C109.296 45.1782 109.28 44.9755 109.248 44.8155C109.227 44.6555 109.184 44.4848 109.12 44.3035C108.992 43.9302 108.688 43.7435 108.208 43.7435C108.155 43.7435 108.112 43.7915 108.08 43.8875C108.048 43.9728 108.032 44.0635 108.032 44.1595C108.032 44.8742 108.043 45.5195 108.064 46.0955C108.075 46.6715 108.08 47.3168 108.08 48.0315L108.112 48.0635ZM112.497 54.2075C112.305 54.2075 112.198 54.0955 112.177 53.8715V53.6635C112.187 53.6102 112.193 53.5462 112.193 53.4715L112.129 53.4075C112.214 53.1835 112.257 52.9648 112.257 52.7515C112.257 52.5062 112.241 52.1542 112.209 51.6955L112.177 50.6395C112.177 50.1062 112.193 49.3062 112.225 48.2395C112.267 47.2902 112.289 46.4848 112.289 45.8235L112.257 44.8635C112.235 44.5755 112.225 44.2555 112.225 43.9035C112.225 43.7435 112.262 43.6315 112.337 43.5675C112.411 43.4928 112.529 43.4555 112.689 43.4555C112.795 43.4555 112.881 43.4875 112.945 43.5515C112.966 43.5622 113.121 43.5835 113.409 43.6155C113.675 43.6475 113.905 43.6955 114.097 43.7595C114.299 43.8235 114.401 43.9035 114.401 43.9995C114.401 44.1062 114.299 44.2128 114.097 44.3195C113.489 44.1168 113.057 44.0155 112.801 44.0155L112.721 44.1115C112.731 44.2075 112.737 44.4368 112.737 44.7995C112.737 45.2582 112.726 45.6688 112.705 46.0315C112.694 46.4048 112.689 46.8208 112.689 47.2795C112.689 47.5782 112.763 47.7275 112.913 47.7275L113.169 47.7115C113.254 47.7008 113.345 47.6955 113.441 47.6955C113.857 47.6955 114.065 47.7915 114.065 47.9835C114.065 48.1008 114.038 48.2022 113.985 48.2875C113.931 48.3622 113.851 48.3995 113.745 48.3995C113.585 48.3995 113.462 48.3568 113.377 48.2715L112.865 48.1915H112.785L112.705 48.2715V48.3195C112.726 48.5008 112.737 48.9222 112.737 49.5835C112.737 49.9995 112.731 50.3782 112.721 50.7195L112.705 51.8555C112.705 52.2715 112.721 52.6982 112.753 53.1355C112.763 53.3808 112.817 53.5462 112.913 53.6315C113.009 53.7062 113.185 53.7435 113.441 53.7435L113.729 53.7275C113.825 53.7168 113.931 53.7115 114.049 53.7115C114.358 53.7115 114.513 53.7808 114.513 53.9195C114.513 54.1115 114.278 54.2075 113.809 54.2075H112.497ZM119.037 53.9835C119.143 53.0128 119.197 51.7168 119.197 50.0955C119.197 49.3808 119.229 48.3035 119.293 46.8635C119.367 45.5302 119.405 44.4582 119.405 43.6475C119.405 43.5515 119.447 43.4768 119.533 43.4235C119.629 43.3702 119.735 43.3435 119.853 43.3435C120.226 43.3435 120.637 43.3862 121.085 43.4715C121.533 43.5568 121.757 43.6688 121.757 43.8075C121.757 43.9888 121.57 44.0795 121.197 44.0795C120.962 43.9728 120.663 43.9195 120.301 43.9195L120.109 43.9355C120.077 43.9462 120.05 43.9622 120.029 43.9835C120.018 44.0048 120.007 44.0368 119.997 44.0795C119.975 44.1648 119.954 44.2235 119.933 44.2555C119.933 44.7355 119.911 45.3008 119.869 45.9515C119.815 46.5808 119.789 47.1408 119.789 47.6315V48.1915C119.789 48.2342 119.874 48.2502 120.045 48.2395C120.589 48.2395 120.861 48.3248 120.861 48.4955C120.861 48.5808 120.818 48.6555 120.733 48.7195C120.658 48.7728 120.573 48.7995 120.477 48.7995C120.413 48.7995 120.322 48.7835 120.205 48.7515C120.098 48.7195 120.007 48.7035 119.933 48.7035C119.741 48.7035 119.645 48.9648 119.645 49.4875V51.2955C119.645 51.5515 119.661 51.9302 119.693 52.4315C119.725 52.9435 119.741 53.3275 119.741 53.5835C119.741 54.0102 119.613 54.2235 119.357 54.2235L119.037 53.9835ZM125.044 54.3035C123.796 54.3035 123.172 52.3408 123.172 48.4155V47.8555C123.172 44.8795 123.556 43.3915 124.324 43.3915C124.377 43.3915 124.452 43.4075 124.548 43.4395C124.889 43.5568 125.225 43.6315 125.556 43.6635C125.759 43.7062 125.961 43.9142 126.164 44.2875C126.388 44.6715 126.553 45.1782 126.66 45.8075C126.777 46.4368 126.836 47.0822 126.836 47.7435L126.804 47.8235C126.804 48.1755 126.809 48.4902 126.82 48.7675L126.836 49.7275C126.836 50.2715 126.815 50.7622 126.772 51.1995C126.708 51.8608 126.601 52.4315 126.452 52.9115C126.356 53.1995 126.244 53.4395 126.116 53.6315C125.999 53.8235 125.849 53.9835 125.668 54.1115C125.497 54.2395 125.289 54.3035 125.044 54.3035ZM124.98 53.8395C125.396 53.8395 125.705 53.5462 125.908 52.9595C126.111 52.3622 126.233 51.7542 126.276 51.1355C126.319 50.4955 126.34 49.9835 126.34 49.5995C126.34 49.1728 126.308 48.5435 126.244 47.7115C126.191 46.7835 126.164 46.1542 126.164 45.8235L126.1 45.6955L126.132 45.6155C126.132 45.1462 125.999 44.7408 125.732 44.3995C125.476 44.0582 125.161 43.8875 124.788 43.8875C124.297 43.8875 124.004 44.1222 123.908 44.5915C123.887 44.7515 123.865 44.9808 123.844 45.2795C123.844 46.0688 123.812 46.6075 123.748 46.8955C123.748 47.0555 123.732 47.3062 123.7 47.6475L123.668 48.3995C123.668 48.6342 123.673 48.8422 123.684 49.0235L123.7 49.6635C123.7 50.1648 123.743 50.7408 123.828 51.3915C123.892 51.8715 123.967 52.2768 124.052 52.6075C124.137 52.9382 124.26 53.2208 124.42 53.4555C124.58 53.7115 124.767 53.8395 124.98 53.8395ZM131.359 54.1915C131.231 54.0528 131.093 53.6848 130.943 53.0875C130.794 52.4902 130.655 51.8182 130.527 51.0715C130.442 50.4635 130.319 49.8608 130.159 49.2635C130.031 48.7302 129.909 48.4635 129.791 48.4635H129.743C129.509 48.4635 129.391 48.5382 129.391 48.6875C129.391 49.4555 129.434 50.6235 129.519 52.1915C129.562 53.1515 129.61 53.7115 129.663 53.8715L129.535 54.1435H129.311L129.183 54.0155C129.013 49.0875 128.927 45.7275 128.927 43.9355C128.927 43.8182 128.933 43.7222 128.943 43.6475C128.965 43.5728 129.002 43.5035 129.055 43.4395C129.098 43.3648 129.173 43.3275 129.279 43.3275C129.823 43.3275 130.261 43.4608 130.591 43.7275C130.922 43.9942 131.087 44.3782 131.087 44.8795V46.0475C131.087 46.2502 131.018 46.5222 130.879 46.8635C130.751 47.2048 130.607 47.5195 130.447 47.8075L130.239 48.2075C130.357 48.7515 130.586 49.7328 130.927 51.1515C131.279 52.5595 131.471 53.3062 131.503 53.3915C131.514 53.4022 131.525 53.4288 131.535 53.4715C131.557 53.5142 131.594 53.5782 131.647 53.6635C131.722 53.8128 131.759 53.9408 131.759 54.0475C131.759 54.1968 131.701 54.2715 131.583 54.2715L131.359 54.1915ZM129.471 48.0635C129.674 48.0635 129.855 47.9622 130.015 47.7595C130.175 47.5568 130.303 47.2955 130.399 46.9755C130.57 46.3248 130.655 45.8075 130.655 45.4235C130.655 45.1782 130.639 44.9755 130.607 44.8155C130.586 44.6555 130.543 44.4848 130.479 44.3035C130.351 43.9302 130.047 43.7435 129.567 43.7435C129.514 43.7435 129.471 43.7915 129.439 43.8875C129.407 43.9728 129.391 44.0635 129.391 44.1595C129.391 44.8742 129.402 45.5195 129.423 46.0955C129.434 46.6715 129.439 47.3168 129.439 48.0315L129.471 48.0635ZM139.166 54.1755C139.166 54.0688 139.006 54.0155 138.686 54.0155C138.633 52.0422 138.606 50.6128 138.606 49.7275L138.558 49.6635L138.622 49.5195C138.622 49.3275 138.601 49.1302 138.558 48.9275L138.318 48.8635C138.222 48.8955 138.116 48.9115 137.998 48.9115C137.913 48.9115 137.737 48.8848 137.47 48.8315C137.289 48.7782 137.124 48.7515 136.974 48.7515L136.798 48.8155C136.798 49.1888 136.793 49.5248 136.782 49.8235C136.772 50.1222 136.766 50.4582 136.766 50.8315L136.798 50.8955C136.798 51.1942 136.814 51.6422 136.846 52.2395C136.878 52.8262 136.894 53.2688 136.894 53.5675C136.894 53.6848 136.873 53.7862 136.83 53.8715C136.788 53.9462 136.724 53.9835 136.638 53.9835C136.404 53.9835 136.286 53.6635 136.286 53.0235C136.286 52.4795 136.292 51.9888 136.302 51.5515L136.318 50.0955C136.318 49.1248 136.302 48.6022 136.27 48.5275C136.324 48.4208 136.35 48.0688 136.35 47.4715C136.35 46.9595 136.329 46.3355 136.286 45.5995L136.254 44.9755L136.222 43.7275C136.222 43.6528 136.249 43.5835 136.302 43.5195C136.356 43.4555 136.42 43.4235 136.494 43.4235C136.708 43.4235 136.814 43.7328 136.814 44.3515C136.814 45.0768 136.809 45.7328 136.798 46.3195C136.777 46.9062 136.766 47.5515 136.766 48.2555C136.766 48.3835 137.172 48.4475 137.982 48.4475H138.046C138.249 48.4475 138.393 48.4102 138.478 48.3355C138.574 48.2502 138.622 48.1115 138.622 47.9195C138.622 47.3542 138.585 46.6182 138.51 45.7115C138.446 44.7302 138.414 43.9942 138.414 43.5035C138.414 43.4395 138.441 43.3862 138.494 43.3435C138.548 43.2902 138.612 43.2635 138.686 43.2635L138.83 43.3115C138.905 43.3222 138.953 43.3382 138.974 43.3595C138.974 44.1915 139.006 45.4342 139.07 47.0875C139.134 48.7515 139.166 49.9995 139.166 50.8315C139.166 52.0902 139.204 53.1462 139.278 53.9995L139.166 54.1755ZM138.158 48.2235L138.19 48.2555H138.158V48.2235ZM143.185 54.3035C141.937 54.3035 141.313 52.3408 141.313 48.4155V47.8555C141.313 44.8795 141.697 43.3915 142.465 43.3915C142.518 43.3915 142.593 43.4075 142.689 43.4395C143.03 43.5568 143.366 43.6315 143.697 43.6635C143.899 43.7062 144.102 43.9142 144.305 44.2875C144.529 44.6715 144.694 45.1782 144.801 45.8075C144.918 46.4368 144.977 47.0822 144.977 47.7435L144.945 47.8235C144.945 48.1755 144.95 48.4902 144.961 48.7675L144.977 49.7275C144.977 50.2715 144.955 50.7622 144.913 51.1995C144.849 51.8608 144.742 52.4315 144.593 52.9115C144.497 53.1995 144.385 53.4395 144.257 53.6315C144.139 53.8235 143.99 53.9835 143.809 54.1115C143.638 54.2395 143.43 54.3035 143.185 54.3035ZM143.121 53.8395C143.537 53.8395 143.846 53.5462 144.049 52.9595C144.251 52.3622 144.374 51.7542 144.417 51.1355C144.459 50.4955 144.481 49.9835 144.481 49.5995C144.481 49.1728 144.449 48.5435 144.385 47.7115C144.331 46.7835 144.305 46.1542 144.305 45.8235L144.241 45.6955L144.273 45.6155C144.273 45.1462 144.139 44.7408 143.873 44.3995C143.617 44.0582 143.302 43.8875 142.929 43.8875C142.438 43.8875 142.145 44.1222 142.049 44.5915C142.027 44.7515 142.006 44.9808 141.985 45.2795C141.985 46.0688 141.953 46.6075 141.889 46.8955C141.889 47.0555 141.873 47.3062 141.841 47.6475L141.809 48.3995C141.809 48.6342 141.814 48.8422 141.825 49.0235L141.841 49.6635C141.841 50.1648 141.883 50.7408 141.969 51.3915C142.033 51.8715 142.107 52.2768 142.193 52.6075C142.278 52.9382 142.401 53.2208 142.561 53.4555C142.721 53.7115 142.907 53.8395 143.121 53.8395ZM153.372 54.8315C153.159 54.8315 153.052 54.4902 153.052 53.8075V52.7515C153.052 51.2155 153.02 50.0155 152.956 49.1515L152.908 48.5595C152.865 48.2928 152.844 48.0582 152.844 47.8555C152.844 47.4928 152.855 47.1622 152.876 46.8635L152.908 45.8715C152.908 45.5408 152.887 45.2902 152.844 45.1195C152.631 45.2688 151.985 47.5142 150.908 51.8555L150.892 52.0955C150.86 52.3622 150.817 52.5755 150.764 52.7355C150.732 52.8528 150.684 52.9435 150.62 53.0075C150.567 53.0715 150.503 53.1035 150.428 53.1035C150.257 53.1035 150.135 53.0608 150.06 52.9755C149.985 52.8902 149.948 52.7568 149.948 52.5755C149.948 52.2875 149.809 51.5408 149.532 50.3355C149.265 49.1302 148.972 47.9728 148.652 46.8635C148.343 45.7542 148.129 45.1408 148.012 45.0235C148.001 45.3968 147.959 46.2768 147.884 47.6635C147.735 50.1168 147.66 52.0475 147.66 53.4555L147.676 54.0955C147.633 54.2342 147.521 54.3035 147.34 54.3035C147.308 54.3035 147.255 54.2715 147.18 54.2075C147.105 54.1542 147.068 54.1115 147.068 54.0795C147.068 53.1195 147.153 51.4342 147.324 49.0235C147.484 46.7835 147.564 45.1035 147.564 43.9835C147.564 43.9302 147.553 43.8768 147.532 43.8235C147.5 43.7595 147.484 43.7115 147.484 43.6795C147.484 43.5195 147.623 43.4395 147.9 43.4395C148.081 43.4395 148.188 43.5195 148.22 43.6795C148.263 43.8928 148.284 44.0528 148.284 44.1595L148.3 44.3515C148.353 44.6288 148.508 45.0555 148.764 45.6315C148.967 46.0902 149.121 46.4902 149.228 46.8315C149.292 47.0875 149.351 47.2955 149.404 47.4555C149.575 48.0742 149.687 48.5328 149.74 48.8315L149.948 49.2475C149.98 49.4075 150.044 49.6688 150.14 50.0315C150.236 50.4368 150.305 50.7675 150.348 51.0235C150.391 51.2795 150.412 51.5248 150.412 51.7595C150.529 51.5782 150.86 50.4902 151.404 48.4955C151.959 46.4902 152.284 45.2102 152.38 44.6555C152.391 44.6342 152.396 44.6075 152.396 44.5755C152.407 44.5328 152.417 44.4795 152.428 44.4155C152.449 44.2768 152.497 44.0688 152.572 43.7915C152.657 43.5782 152.785 43.4715 152.956 43.4715C153.031 43.4715 153.116 43.5035 153.212 43.5675C153.308 43.6315 153.356 43.6955 153.356 43.7595C153.356 48.2075 153.425 50.5595 153.564 50.8155V51.6475C153.553 51.8928 153.548 52.1755 153.548 52.4955C153.548 53.1782 153.585 53.6902 153.66 54.0315C153.671 54.0422 153.676 54.0582 153.676 54.0795C153.687 54.1008 153.697 54.1275 153.708 54.1595C153.719 54.2022 153.724 54.2502 153.724 54.3035C153.724 54.4208 153.687 54.5382 153.612 54.6555C153.548 54.7728 153.468 54.8315 153.372 54.8315ZM152.844 45.0235H152.828L152.796 45.0395L152.844 45.0555V45.0235ZM156.434 54.2075C156.242 54.2075 156.135 54.0955 156.114 53.8715V53.6635C156.125 53.6102 156.13 53.5462 156.13 53.4715L156.066 53.4075C156.151 53.1835 156.194 52.9648 156.194 52.7515C156.194 52.5062 156.178 52.1542 156.146 51.6955L156.114 50.6395C156.114 50.1062 156.13 49.3062 156.162 48.2395C156.205 47.2902 156.226 46.4848 156.226 45.8235L156.194 44.8635C156.173 44.5755 156.162 44.2555 156.162 43.9035C156.162 43.7435 156.199 43.6315 156.274 43.5675C156.349 43.4928 156.466 43.4555 156.626 43.4555C156.733 43.4555 156.818 43.4875 156.882 43.5515C156.903 43.5622 157.058 43.5835 157.346 43.6155C157.613 43.6475 157.842 43.6955 158.034 43.7595C158.237 43.8235 158.338 43.9035 158.338 43.9995C158.338 44.1062 158.237 44.2128 158.034 44.3195C157.426 44.1168 156.994 44.0155 156.738 44.0155L156.658 44.1115C156.669 44.2075 156.674 44.4368 156.674 44.7995C156.674 45.2582 156.663 45.6688 156.642 46.0315C156.631 46.4048 156.626 46.8208 156.626 47.2795C156.626 47.5782 156.701 47.7275 156.85 47.7275L157.106 47.7115C157.191 47.7008 157.282 47.6955 157.378 47.6955C157.794 47.6955 158.002 47.7915 158.002 47.9835C158.002 48.1008 157.975 48.2022 157.922 48.2875C157.869 48.3622 157.789 48.3995 157.682 48.3995C157.522 48.3995 157.399 48.3568 157.314 48.2715L156.802 48.1915H156.722L156.642 48.2715V48.3195C156.663 48.5008 156.674 48.9222 156.674 49.5835C156.674 49.9995 156.669 50.3782 156.658 50.7195L156.642 51.8555C156.642 52.2715 156.658 52.6982 156.69 53.1355C156.701 53.3808 156.754 53.5462 156.85 53.6315C156.946 53.7062 157.122 53.7435 157.378 53.7435L157.666 53.7275C157.762 53.7168 157.869 53.7115 157.986 53.7115C158.295 53.7115 158.45 53.7808 158.45 53.9195C158.45 54.1115 158.215 54.2075 157.746 54.2075H156.434Z" fill="white"/>
</svg>
