<svg width="207" height="81" viewBox="0 0 207 81" fill="none" xmlns="http://www.w3.org/2000/svg">
<path d="M84.9566 58.2337C83.1034 60.5982 80.7389 62.4269 78.5662 64.4271C73.6882 68.8847 68.6256 73.1422 63.5417 77.3354C63.0742 77.8219 62.479 78.1648 61.8254 78.3241C61.1717 78.4835 60.4865 78.4527 59.8495 78.2355C52.5432 76.2639 45.1374 74.6637 37.8382 72.7636C27.5284 70.0919 17.247 67.2774 6.96558 64.5271C6.57315 64.4864 6.19576 64.3533 5.86395 64.1386C5.53213 63.9239 5.2552 63.6336 5.05557 63.2913C5.97863 63.4699 6.73837 64.0414 7.64723 64.3057C18.0067 67.2631 28.4586 69.8347 38.8891 72.5135C45.7836 74.278 52.6923 75.9424 59.5868 77.6783C60.588 77.9354 60.9075 77.8997 60.5667 76.6925C60.2292 75.3569 60.2439 73.9559 60.6093 72.6278C61.2199 70.2062 61.2341 70.1562 58.7773 69.6704C57.762 69.4704 56.6472 68.6418 55.6461 69.5633C53.6863 71.3134 51.6769 71.3206 49.5468 69.9276C49.1792 69.7263 48.7942 69.559 48.3965 69.4276C43.6322 67.3845 38.9956 64.9272 34.075 63.3913C25.1427 60.6054 16.0967 58.1623 7.1857 55.2906C5.95022 54.8977 5.35379 55.2906 4.74315 56.2192C3.08166 58.7052 3.50058 61.0482 5.11238 63.3627C2.76924 62.2698 2.40712 57.5908 5.11238 54.9549C6.19283 54.0233 7.3312 53.1619 8.52058 52.3761C7.72533 51.526 6.48986 51.5188 5.68041 50.7973C5.64491 50.4616 5.90762 50.3402 6.09933 50.1687C8.17266 48.24 8.35727 46.3541 6.68867 44.0753C5.6023 42.5895 5.5739 42.4966 7.31351 41.8466C8.52768 41.3894 9.11701 40.775 9.12411 39.3892C9.12411 37.089 10.5442 35.7603 12.6743 35.1031C14.8044 34.4459 16.7784 33.9101 18.8304 33.3101C19.1144 33.2315 19.4836 33.3101 19.5759 32.8886C20.996 32.9958 22.2812 32.31 23.6232 32.01C23.9072 31.9457 24.106 31.81 24.0421 31.4885C23.9782 31.167 23.6942 30.9027 23.3676 31.0599C22.1037 31.6599 20.4848 31.5385 19.6043 32.9243C18.8943 32.3029 19.4623 32.0171 19.931 31.81C20.8824 31.3813 21.8694 31.0313 22.835 30.6384C23.1048 30.5241 23.4812 30.4313 23.396 30.0098C23.3108 29.5883 22.9415 29.6955 22.6362 29.6741C21.1664 29.5883 19.796 30.3098 18.376 30.3313L18.2837 29.9241C19.5333 29.6669 20.783 29.3383 22.0469 29.174C22.8492 29.074 23.1545 28.9597 22.8634 28.0525C22.4295 26.6365 22.3514 25.1344 22.6362 23.6807C22.7572 23.1085 22.6663 22.5115 22.3806 22.0019C21.4291 20.3304 21.7345 18.5302 21.9262 16.7586C22.0327 15.73 22.8066 15.5371 23.5238 16.0443C25.2421 17.2158 26.3639 16.5729 27.5923 15.1799C31.9946 10.0366 38.2429 8.52933 44.3493 6.94348C52.0958 4.85503 60.3123 5.41282 67.7097 8.52933C73.7592 11.0367 76.9899 15.5585 77.5012 22.102C77.8671 25.6125 77.6269 29.1604 76.7911 32.5886C76.5568 33.4458 76.7911 33.8101 77.6716 33.9673C79.1627 34.2245 80.6324 34.6245 82.1093 34.9602C83.0892 35.1817 83.4797 35.496 82.9188 36.6532C81.8892 38.7391 82.2513 39.8678 84.069 41.1536C84.63 41.5537 84.4241 41.7823 84.069 42.0823C83.714 42.3823 83.1105 42.4823 82.8762 43.1467C84.3673 43.4324 85.8299 43.7039 87.2855 43.9896C89.721 44.4682 90.5943 45.6755 90.3458 48.1757C90.2322 49.3044 90.9067 50.0401 91.631 50.7473C91.915 51.0259 92.4333 51.2402 91.9221 51.726C89.6145 53.9119 87.598 56.4193 84.9637 58.2551C86.3838 56.2121 88.3719 54.7691 90.0689 53.019C90.9351 52.1332 92.1138 51.376 90.4807 50.1616C90.2517 49.94 90.1083 49.6438 90.076 49.3258C89.9624 48.5114 89.6571 48.5114 89.0677 48.9472C88.1802 49.6044 87.2429 50.1759 86.3554 50.8259C78.6372 56.5407 71.2954 62.7198 63.7192 68.5989C62.5285 69.544 61.6409 70.8211 61.1674 72.2707C60.6938 73.7203 60.6553 75.2781 61.0566 76.7496C61.3619 77.9212 61.6317 78.3783 62.8246 77.3925C69.9747 71.4706 77.0254 65.4344 83.7708 59.0481C84.069 58.7195 84.3318 58.1909 84.9566 58.2337ZM72.9285 24.4807C73.0318 25.1977 72.9933 25.9281 72.8153 26.63C72.6372 27.3319 72.3231 27.9916 71.891 28.571C71.4588 29.1505 70.9172 29.6383 70.2971 30.0066C69.677 30.3749 68.9908 30.6163 68.2777 30.717C65.1251 31.3456 62.0222 30.767 58.9407 30.1884C53.0757 29.0954 47.2321 27.9239 41.1896 28.4811C35.1471 29.0383 30.2124 31.2813 26.5911 36.2603C25.1711 38.1891 24.7521 40.5822 25.661 41.8394C26.5698 43.0967 28.6716 43.2681 31.0644 42.3752C31.2135 42.318 31.3413 42.2323 31.4904 42.1752C32.8632 41.659 34.2941 41.3159 35.7507 41.1536C41.0689 40.4893 46.3019 41.1536 51.5349 41.9751C55.3549 42.5752 59.1679 43.2895 63.0731 43.0467C70.2942 42.6109 74.945 38.5748 76.4716 31.5171C77.1149 28.3131 77.2491 25.0268 76.8692 21.7805C76.1592 15.2228 72.7155 11.0653 66.6162 8.74363C58.4578 5.66479 50.2852 5.6505 41.992 8.08643C36.4749 9.70801 31.1141 11.5867 27.216 16.1871C26.7403 16.7443 26.0231 17.1301 26.3 18.0802L23.8291 16.7658C22.7569 16.1943 22.3096 16.53 22.3096 17.7373C22.3096 21.0733 23.2397 24.3164 23.2539 27.6524C23.2276 27.8639 23.2531 28.0785 23.3281 28.2778C23.4031 28.477 23.5254 28.6548 23.6843 28.7956C23.8432 28.9365 24.0339 29.0361 24.2398 29.0859C24.4457 29.1356 24.6606 29.134 24.8657 29.0811C25.0007 29.0811 25.1853 29.1311 25.2066 29.0811C24.8799 29.7955 24.2196 29.274 24.0705 29.8669C24.532 30.4241 25.2776 29.6169 25.732 30.1884C25.4622 30.7099 24.3119 30.3027 24.5604 31.0813C25.0007 32.3457 25.9805 30.7099 26.6905 31.2956L26.4349 31.6314C26.1296 32.0171 25.1498 31.7385 25.3273 32.46C25.4624 32.8633 25.6792 33.2341 25.964 33.5488C26.2487 33.8636 26.5952 34.1155 26.9817 34.2887C27.642 34.6388 27.8337 33.8673 28.1674 33.5744C30.3472 31.3525 33.0629 29.7378 36.0489 28.8883C41.3032 27.3953 46.6143 27.681 51.9325 28.4025C56.3845 29.0026 60.7442 30.2384 65.2529 30.417C69.8753 30.5813 71.7143 29.2383 72.9285 24.4807ZM7.2212 43.7682C8.29336 45.9112 8.8898 47.8257 7.31351 49.5615C6.34785 50.6188 6.73837 50.8759 7.79633 51.326C17.0269 55.2906 26.2574 59.3052 35.4383 63.2984C40.6878 65.5701 45.9161 67.8346 51.1231 70.0919C51.6059 70.2991 52.1172 70.8063 52.6497 70.1419C54.6378 67.5774 53.7645 64.6057 51.4 63.7699C39.0467 59.4718 27.0971 54.0788 15.692 47.6542C12.994 46.0999 10.1582 44.8013 7.2212 43.7753V43.7682ZM82.2442 36.5389C81.5475 36.6413 80.8785 36.8843 80.2774 37.2533C71.0185 41.5394 61.7595 45.8088 52.5006 50.0616C49.4048 51.4903 48.5977 53.7476 50.0793 56.8336C50.4983 57.7265 50.8604 57.9766 51.826 57.4551C59.3312 53.3904 67.0777 49.8473 74.8669 46.3684C77.9314 45.083 80.8637 43.4991 83.6217 41.6394C81.378 40.3964 81.8608 38.4605 82.2442 36.5389ZM53.3455 70.2776C53.9988 69.9347 54.3254 69.7847 54.6378 69.599C61.2412 65.7415 67.8233 61.8483 74.448 58.0266C79.3116 55.1335 84.0165 51.9787 88.5423 48.5757C89.2523 48.0542 90.0618 47.5828 89.7494 46.4327C89.2807 44.7397 86.9092 43.7682 85.5672 44.8754C79.5035 49.8187 72.5593 53.2976 65.7855 57.0193C61.9299 59.1624 57.975 61.0911 54.0911 63.1413C53.7076 63.3413 52.7562 63.4413 53.2532 64.1199C54.6307 66.0844 54.3254 67.9917 53.3455 70.2776ZM51.0024 50.1116C45.7623 48.3471 40.9553 46.1612 36.0915 44.1539C35.9518 44.0627 35.7937 44.0038 35.6286 43.9813C35.4636 43.9588 35.2956 43.9734 35.1368 44.0239C34.978 44.0744 34.8323 44.1597 34.7101 44.2736C34.5879 44.3874 34.4922 44.5271 34.43 44.6825C33.3342 46.4903 32.8369 48.6013 33.0099 50.7116C32.9895 51.0735 33.0975 51.4309 33.3147 51.72C33.5319 52.0092 33.8441 52.2113 34.1957 52.2903C37.8453 53.5619 41.4665 54.9191 45.1161 56.205C46.6001 56.7336 48.1196 57.155 49.8095 57.6837C48.8084 54.8334 48.2829 52.2903 51.0024 50.1116ZM65.473 43.6824L65.3949 43.2824C62.15 43.9253 58.9336 43.611 55.7171 43.1538C49.8663 42.3252 44.0511 41.1536 38.1009 41.4965C36.416 41.5132 34.7422 41.773 33.1306 42.268C33.279 42.4252 33.4432 42.5664 33.6206 42.6895C39.3932 45.154 45.2155 47.5042 51.116 49.633C51.3073 49.7178 51.514 49.7616 51.7231 49.7616C51.9321 49.7616 52.1389 49.7178 52.3302 49.633L65.473 43.6824ZM21.5996 47.7042C21.3184 46.2003 21.4326 44.6486 21.9308 43.2027C22.4289 41.7568 23.2938 40.4669 24.4397 39.4606C23.5877 39.1535 22.9699 38.9034 22.3096 38.7034C19.7179 37.8676 17.1476 36.9747 14.4991 36.2389C11.4246 35.3817 9.63534 36.7461 9.40813 39.9464C9.37618 41.0023 9.57999 42.0519 10.0046 43.0181C10.055 43.1934 10.1454 43.3545 10.2687 43.4885C10.392 43.6224 10.5447 43.7255 10.7146 43.7896L21.5996 47.7042ZM13.4909 35.3317L18.4186 36.939C20.2008 37.5176 21.9688 38.1177 23.7794 38.6748C24.1202 38.782 24.6953 39.232 24.816 38.5748C25.0717 37.1461 27.0172 36.0175 26.4207 34.8031C25.1356 32.21 24.4539 32.2386 21.9546 33.8458C21.6919 34.0173 21.4433 34.2102 21.1664 34.3602C21.067 34.4173 20.9037 34.3602 20.7901 34.3602C20.6765 33.8458 21.4433 33.803 21.2161 33.1886L13.4909 35.3317ZM6.39045 54.6477C14.0305 57.0408 21.5143 59.3981 29.1118 61.3126C28.681 60.959 28.203 60.668 27.6917 60.4482C22.3735 58.1409 16.9843 55.9907 11.7655 53.4762C9.50753 52.3975 8.06615 52.9047 6.39045 54.6477ZM77.3023 57.2122L77.0893 57.005L56.9809 68.7489C58.4933 69.1204 59.4874 69.3918 60.5312 69.6204C60.7763 69.7071 61.0386 69.7329 61.2957 69.6956C61.5529 69.6583 61.7973 69.559 62.008 69.4061C67.0872 65.3296 72.1877 61.2649 77.3094 57.2122H77.3023ZM29.5307 49.3972C29.0195 50.9188 30.539 50.8759 31.5117 51.3045C32.165 51.5903 32.5768 51.6117 32.4987 50.6473C32.3138 48.4351 32.8524 46.2227 34.0324 44.3468C34.1886 44.0968 34.5862 43.8253 34.2028 43.3967C33.9968 43.1669 33.7398 42.9893 33.4527 42.8784C33.1656 42.7675 32.8565 42.7263 32.5506 42.7584C32.2447 42.7904 31.9506 42.8947 31.6923 43.0627C31.4341 43.2307 31.2189 43.4578 31.0644 43.7253C30.0703 45.3754 29.7508 47.2256 29.5307 49.3972ZM82.1235 35.8246V35.4889C80.5472 35.1531 78.9709 34.7745 77.3875 34.4888C76.9757 34.4102 76.4006 34.0816 76.145 34.7102C75.2638 36.6795 74.1479 38.5337 72.822 40.2321L82.1235 35.8246ZM24.9083 46.4684H24.9438C24.8941 47.0412 24.8941 47.6172 24.9438 48.19C25.1782 49.4615 26.3639 49.6187 27.2444 49.6187C28.1248 49.6187 27.5639 48.6972 27.5994 48.19C27.7046 46.8963 27.9742 45.6215 28.4018 44.3968C28.5012 44.111 28.842 43.7824 28.281 43.4967C26.2929 42.4609 25.1427 43.0824 24.9367 45.3683C24.8515 45.7183 24.9083 46.1041 24.9083 46.4684ZM24.7521 48.6114C23.5522 45.8612 25.9663 43.1324 24.4255 40.325C23.659 40.9836 23.0455 41.8035 22.6283 42.7268C22.2112 43.6501 22.0006 44.6542 22.0114 45.6683C21.9333 47.8614 22.1818 48.1685 24.7521 48.6257V48.6114ZM28.7284 50.2187C29.1757 47.8899 29.4384 45.554 30.5816 43.3895C29.5023 43.1181 29.1615 43.6967 28.9059 44.4611C28.3378 46.3684 27.5497 48.2614 28.7284 50.233V50.2187Z" fill="black"/>
<path d="M42.2823 20.7161C42.4842 19.761 42.57 18.7847 42.5379 17.8087C42.5379 16.8086 42.1474 16.53 41.1818 16.8301C39.8265 17.3439 38.5931 18.1371 37.5605 19.1588C38.086 17.6158 40.9687 15.7514 42.261 15.9514C42.4106 15.9765 42.552 16.0378 42.6729 16.13C43.3616 16.7229 43.1983 19.7517 42.2823 20.7161Z" fill="black"/>
<path d="M26.123 26.188C27.1313 26.9809 28.0686 26.5523 29.0981 25.9951C28.31 27.5596 27.1526 27.6167 26.123 26.188Z" fill="black"/>
<path d="M33.2936 27.1452C32.8818 27.9525 32.2499 28.4382 32.2854 29.3312C31.8523 28.6597 31.7031 27.9025 31.0996 27.3167C31.8807 27.4453 32.5836 27.8953 33.2936 27.1452Z" fill="black"/>
<path d="M38.5615 25.5308C37.8515 26.9595 36.7722 26.9595 35.4941 25.6165C36.6444 25.9594 37.6314 26.4309 38.5615 25.5308Z" fill="black"/>
<path d="M112.272 40.576C111.6 40.576 110.892 40.312 110.148 39.784C109.404 39.256 108.876 38.656 108.564 37.984C108.276 37.36 107.976 35.38 107.664 32.044C107.376 28.708 107.232 26.224 107.232 24.592V22.684C107.208 22.132 107.196 21.52 107.196 20.848C107.196 19.6 107.268 18.364 107.412 17.14C107.508 16.54 107.628 16.024 107.772 15.592C107.94 15.16 108.168 14.74 108.456 14.332C108.984 13.516 109.776 12.976 110.832 12.712C111.384 12.568 111.996 12.496 112.668 12.496C113.124 12.496 113.58 12.628 114.036 12.892C114.516 13.156 114.756 13.468 114.756 13.828C114.756 14.092 114.564 14.224 114.18 14.224C114.036 14.224 113.76 14.14 113.352 13.972C112.992 13.804 112.668 13.72 112.38 13.72C111.708 13.72 111.096 13.864 110.544 14.152C110.016 14.416 109.596 14.776 109.284 15.232C109.02 15.616 108.792 16.144 108.6 16.816C108.408 17.488 108.288 18.16 108.24 18.832C108.168 19.432 108.132 20.152 108.132 20.992L108.168 23.008C108.192 23.584 108.204 24.208 108.204 24.88C108.204 26.536 108.372 28.972 108.708 32.188C109.044 35.404 109.368 37.264 109.68 37.768C109.968 38.224 110.388 38.572 110.94 38.812C111.516 39.052 112.116 39.172 112.74 39.172C113.844 39.172 114.684 38.824 115.26 38.128C115.476 37.84 115.704 37.696 115.944 37.696C116.16 37.696 116.268 37.864 116.268 38.2C116.268 38.632 116.136 39.016 115.872 39.352C115.608 39.664 115.248 39.904 114.792 40.072C114.024 40.408 113.184 40.576 112.272 40.576ZM123.219 40.684C120.411 40.684 119.007 36.268 119.007 27.436V26.176C119.007 19.48 119.871 16.132 121.599 16.132C121.719 16.132 121.887 16.168 122.103 16.24C122.871 16.504 123.627 16.672 124.371 16.744C124.827 16.84 125.283 17.308 125.739 18.148C126.243 19.012 126.615 20.152 126.855 21.568C127.119 22.984 127.251 24.436 127.251 25.924L127.179 26.104C127.179 26.896 127.191 27.604 127.215 28.228L127.251 30.388C127.251 31.612 127.203 32.716 127.107 33.7C126.963 35.188 126.723 36.472 126.387 37.552C126.171 38.2 125.919 38.74 125.631 39.172C125.367 39.604 125.031 39.964 124.623 40.252C124.239 40.54 123.771 40.684 123.219 40.684ZM123.075 39.64C124.011 39.64 124.707 38.98 125.163 37.66C125.619 36.316 125.895 34.948 125.991 33.556C126.087 32.116 126.135 30.964 126.135 30.1C126.135 29.14 126.063 27.724 125.919 25.852C125.799 23.764 125.739 22.348 125.739 21.604L125.595 21.316L125.667 21.136C125.667 20.08 125.367 19.168 124.767 18.4C124.191 17.632 123.483 17.248 122.643 17.248C121.539 17.248 120.879 17.776 120.663 18.832C120.615 19.192 120.567 19.708 120.519 20.38C120.519 22.156 120.447 23.368 120.303 24.016C120.303 24.376 120.267 24.94 120.195 25.708L120.123 27.4C120.123 27.928 120.135 28.396 120.159 28.804L120.195 30.244C120.195 31.372 120.291 32.668 120.483 34.132C120.627 35.212 120.795 36.124 120.987 36.868C121.179 37.612 121.455 38.248 121.815 38.776C122.175 39.352 122.595 39.64 123.075 39.64ZM132.316 40.432C132.052 40.384 131.8 40.276 131.56 40.108C131.32 39.964 131.188 39.784 131.164 39.568L131.344 39.28C131.44 39.28 131.656 39.316 131.992 39.388C132.256 39.484 132.472 39.532 132.64 39.532C133.168 39.532 133.636 39.328 134.044 38.92C134.452 38.488 134.764 37.936 134.98 37.264C135.316 36.016 135.484 34.84 135.484 33.736C135.484 32.08 134.98 30.304 133.972 28.408C133.348 27.304 132.868 26.428 132.532 25.78C132.196 25.132 131.896 24.388 131.632 23.548C131.32 22.564 131.164 21.616 131.164 20.704C131.164 19.84 131.38 18.82 131.812 17.644C132.028 17.092 132.328 16.648 132.712 16.312C133.12 15.952 133.552 15.772 134.008 15.772C134.32 15.772 134.62 15.88 134.908 16.096C135.22 16.312 135.376 16.54 135.376 16.78C135.376 16.972 135.22 17.068 134.908 17.068C134.812 17.068 134.692 17.032 134.548 16.96C134.404 16.888 134.272 16.852 134.152 16.852C133.792 16.852 133.468 16.996 133.18 17.284C132.892 17.572 132.676 17.944 132.532 18.4C132.244 19.288 132.1 20.104 132.1 20.848C132.1 21.304 132.16 21.772 132.28 22.252C132.304 22.396 132.328 22.516 132.352 22.612C132.376 22.708 132.388 22.78 132.388 22.828L132.604 23.548L132.784 24.196L133.072 24.844C133.144 25.012 133.216 25.168 133.288 25.312C133.384 25.432 133.468 25.552 133.54 25.672L133.972 26.428C134.068 26.572 134.272 26.92 134.584 27.472C134.896 28 135.184 28.564 135.448 29.164C135.688 29.668 135.868 30.148 135.988 30.604C136.108 31.036 136.216 31.564 136.312 32.188C136.384 32.788 136.42 33.448 136.42 34.168C136.42 35.32 136.264 36.4 135.952 37.408C135.52 38.608 134.896 39.448 134.08 39.928C133.624 40.216 133.096 40.36 132.496 40.36L132.316 40.432ZM135.196 16.96C135.196 16.936 135.184 16.924 135.16 16.924V16.96H135.196ZM142.724 40C142.172 40 141.848 39.88 141.752 39.64C141.632 39.64 141.536 39.652 141.464 39.676H141.176C140.648 39.676 140.312 39.556 140.168 39.316C140.168 39.148 140.264 39.004 140.456 38.884L140.636 38.704H141.68L141.824 38.56L141.896 38.236L141.932 37.804C141.932 36.34 141.896 35.032 141.824 33.88L141.752 32.548L141.68 29.92C141.68 28.984 141.716 27.58 141.788 25.708L141.86 21.532C141.86 19.708 141.8 18.316 141.68 17.356C141.464 17.284 141.104 17.248 140.6 17.248L140.204 17.284C140.06 17.308 139.904 17.32 139.736 17.32C139.28 17.32 139.052 17.116 139.052 16.708C139.052 16.612 139.16 16.516 139.375 16.42C139.592 16.324 139.772 16.276 139.916 16.276C140.828 16.276 141.74 16.324 142.652 16.42C143.204 16.444 143.756 16.552 144.308 16.744C144.74 16.888 144.956 17.092 144.956 17.356C144.956 17.404 144.92 17.5 144.848 17.644L144.02 17.716C143.852 17.572 143.504 17.5 142.976 17.5L142.796 17.608C142.868 17.824 142.904 18.46 142.904 19.516C142.904 21.1 142.892 22.528 142.868 23.8L142.796 28.084C142.796 29.164 142.844 30.472 142.939 32.008C143.012 33.76 143.048 35.08 143.048 35.968V36.436C143.024 36.604 143.012 36.82 143.012 37.084C143.012 37.636 143.048 37.972 143.12 38.092L143.084 38.164C143.084 38.404 143.348 38.524 143.876 38.524C144.092 38.524 144.272 38.512 144.416 38.488H144.956C145.652 38.488 146 38.656 146 38.992C146 39.208 145.928 39.388 145.784 39.532C145.64 39.652 145.448 39.712 145.208 39.712C144.992 39.712 144.8 39.688 144.632 39.64C144.44 39.616 144.236 39.604 144.02 39.604C143.876 39.604 143.66 39.664 143.372 39.784C143.084 39.928 142.868 40 142.724 40ZM158.502 40.144C158.31 40.144 158.166 40.072 158.07 39.928C157.998 39.784 157.926 39.568 157.854 39.28C157.83 39.088 157.782 38.92 157.71 38.776L157.746 38.668C157.554 37.54 157.146 36.16 156.522 34.528L155.874 32.656C155.826 32.608 155.598 31.996 155.19 30.82L154.902 29.956C152.742 23.284 151.386 19.672 150.834 19.12C150.642 19.768 150.546 20.608 150.546 21.64C150.546 22.192 150.558 22.672 150.582 23.08L150.618 24.484L150.582 25.348C150.558 25.612 150.546 25.9 150.546 26.212C150.546 26.74 150.57 27.196 150.618 27.58C150.666 28.348 150.69 28.732 150.69 28.732H150.582C150.582 32.74 150.666 34.948 150.834 35.356V38.596C150.93 38.788 150.978 39.04 150.978 39.352C150.978 39.544 150.906 39.712 150.762 39.856C150.642 40 150.486 40.072 150.294 40.072C149.79 40.072 149.538 39.424 149.538 38.128L149.61 36.976C149.658 36.616 149.682 36.22 149.682 35.788C149.682 34.636 149.646 32.908 149.574 30.604C149.502 28.3 149.466 26.572 149.466 25.42C149.466 24.724 149.502 23.656 149.574 22.216C149.646 20.8 149.682 19.744 149.682 19.048V18.58C149.682 17.404 149.898 16.636 150.33 16.276L150.438 16.384L150.798 16.312C150.894 16.336 151.002 16.408 151.122 16.528C151.218 16.624 151.266 16.732 151.266 16.852L151.338 17.068C151.338 17.116 151.338 17.164 151.338 17.212C151.362 17.236 151.374 17.248 151.374 17.248C151.758 18.952 152.622 21.34 153.966 24.412C155.334 27.652 156.186 29.8 156.522 30.856C156.762 31.696 156.954 32.44 157.098 33.088C157.554 35.128 158.094 36.7 158.718 37.804L158.79 37.696C159.342 32.368 159.618 25.828 159.618 18.076L159.582 17.644C159.558 17.524 159.546 17.368 159.546 17.176C159.546 16.672 159.714 16.42 160.05 16.42C160.266 16.42 160.446 16.528 160.59 16.744C160.758 16.96 160.842 17.2 160.842 17.464V19.876L160.662 20.164C160.662 22.444 160.53 26.188 160.266 31.396C160.002 36.604 159.75 39.436 159.51 39.892L158.898 40.036V40.072L158.862 40.036L158.502 40.144ZM166.565 40.468C166.133 40.468 165.893 40.216 165.845 39.712V39.244C165.869 39.124 165.881 38.98 165.881 38.812L165.737 38.668C165.929 38.164 166.025 37.672 166.025 37.192C166.025 36.64 165.989 35.848 165.917 34.816L165.845 32.44C165.845 31.24 165.881 29.44 165.953 27.04C166.049 24.904 166.097 23.092 166.097 21.604L166.025 19.444C165.977 18.796 165.953 18.076 165.953 17.284C165.953 16.924 166.037 16.672 166.205 16.528C166.373 16.36 166.637 16.276 166.997 16.276C167.237 16.276 167.429 16.348 167.573 16.492C167.621 16.516 167.969 16.564 168.617 16.636C169.217 16.708 169.733 16.816 170.165 16.96C170.621 17.104 170.849 17.284 170.849 17.5C170.849 17.74 170.621 17.98 170.165 18.22C168.797 17.764 167.825 17.536 167.249 17.536L167.069 17.752C167.093 17.968 167.105 18.484 167.105 19.3C167.105 20.332 167.081 21.256 167.033 22.072C167.009 22.912 166.997 23.848 166.997 24.88C166.997 25.552 167.165 25.888 167.501 25.888L168.077 25.852C168.269 25.828 168.473 25.816 168.689 25.816C169.625 25.816 170.093 26.032 170.093 26.464C170.093 26.728 170.033 26.956 169.913 27.148C169.793 27.316 169.613 27.4 169.373 27.4C169.013 27.4 168.737 27.304 168.545 27.112L167.393 26.932H167.213L167.033 27.112V27.22C167.081 27.628 167.105 28.576 167.105 30.064C167.105 31 167.093 31.852 167.069 32.62L167.033 35.176C167.033 36.112 167.069 37.072 167.141 38.056C167.165 38.608 167.285 38.98 167.501 39.172C167.717 39.34 168.113 39.424 168.689 39.424L169.337 39.388C169.553 39.364 169.793 39.352 170.057 39.352C170.753 39.352 171.101 39.508 171.101 39.82C171.101 40.252 170.573 40.468 169.517 40.468H166.565ZM175.488 40.432C175.224 40.384 174.972 40.276 174.732 40.108C174.492 39.964 174.36 39.784 174.336 39.568L174.516 39.28C174.612 39.28 174.828 39.316 175.164 39.388C175.428 39.484 175.644 39.532 175.812 39.532C176.34 39.532 176.808 39.328 177.216 38.92C177.624 38.488 177.936 37.936 178.152 37.264C178.488 36.016 178.656 34.84 178.656 33.736C178.656 32.08 178.152 30.304 177.144 28.408C176.52 27.304 176.04 26.428 175.704 25.78C175.368 25.132 175.068 24.388 174.804 23.548C174.492 22.564 174.336 21.616 174.336 20.704C174.336 19.84 174.552 18.82 174.984 17.644C175.2 17.092 175.5 16.648 175.884 16.312C176.292 15.952 176.724 15.772 177.18 15.772C177.492 15.772 177.792 15.88 178.08 16.096C178.392 16.312 178.548 16.54 178.548 16.78C178.548 16.972 178.392 17.068 178.08 17.068C177.984 17.068 177.864 17.032 177.72 16.96C177.576 16.888 177.444 16.852 177.324 16.852C176.964 16.852 176.64 16.996 176.352 17.284C176.064 17.572 175.848 17.944 175.704 18.4C175.416 19.288 175.272 20.104 175.272 20.848C175.272 21.304 175.332 21.772 175.452 22.252C175.476 22.396 175.5 22.516 175.524 22.612C175.548 22.708 175.56 22.78 175.56 22.828L175.776 23.548L175.956 24.196L176.244 24.844C176.316 25.012 176.388 25.168 176.46 25.312C176.556 25.432 176.64 25.552 176.712 25.672L177.144 26.428C177.24 26.572 177.444 26.92 177.756 27.472C178.068 28 178.356 28.564 178.62 29.164C178.86 29.668 179.04 30.148 179.16 30.604C179.28 31.036 179.388 31.564 179.484 32.188C179.556 32.788 179.592 33.448 179.592 34.168C179.592 35.32 179.436 36.4 179.124 37.408C178.692 38.608 178.068 39.448 177.252 39.928C176.796 40.216 176.268 40.36 175.668 40.36L175.488 40.432ZM178.368 16.96C178.368 16.936 178.356 16.924 178.332 16.924V16.96H178.368ZM183.644 40.432C183.38 40.384 183.128 40.276 182.888 40.108C182.648 39.964 182.516 39.784 182.492 39.568L182.672 39.28C182.768 39.28 182.984 39.316 183.32 39.388C183.584 39.484 183.8 39.532 183.968 39.532C184.496 39.532 184.964 39.328 185.372 38.92C185.78 38.488 186.092 37.936 186.308 37.264C186.644 36.016 186.812 34.84 186.812 33.736C186.812 32.08 186.308 30.304 185.3 28.408C184.676 27.304 184.196 26.428 183.86 25.78C183.524 25.132 183.224 24.388 182.96 23.548C182.648 22.564 182.492 21.616 182.492 20.704C182.492 19.84 182.708 18.82 183.14 17.644C183.356 17.092 183.656 16.648 184.04 16.312C184.448 15.952 184.88 15.772 185.336 15.772C185.648 15.772 185.948 15.88 186.236 16.096C186.548 16.312 186.704 16.54 186.704 16.78C186.704 16.972 186.548 17.068 186.236 17.068C186.14 17.068 186.02 17.032 185.876 16.96C185.732 16.888 185.6 16.852 185.48 16.852C185.12 16.852 184.796 16.996 184.508 17.284C184.22 17.572 184.004 17.944 183.86 18.4C183.572 19.288 183.428 20.104 183.428 20.848C183.428 21.304 183.488 21.772 183.608 22.252C183.632 22.396 183.656 22.516 183.68 22.612C183.704 22.708 183.716 22.78 183.716 22.828L183.932 23.548L184.112 24.196L184.4 24.844C184.472 25.012 184.544 25.168 184.616 25.312C184.712 25.432 184.796 25.552 184.868 25.672L185.3 26.428C185.396 26.572 185.6 26.92 185.912 27.472C186.224 28 186.512 28.564 186.776 29.164C187.016 29.668 187.196 30.148 187.316 30.604C187.436 31.036 187.544 31.564 187.64 32.188C187.712 32.788 187.748 33.448 187.748 34.168C187.748 35.32 187.592 36.4 187.28 37.408C186.848 38.608 186.224 39.448 185.408 39.928C184.952 40.216 184.424 40.36 183.824 40.36L183.644 40.432ZM186.524 16.96C186.524 16.936 186.512 16.924 186.488 16.924V16.96H186.524ZM106.992 70.288C106.816 70.256 106.648 70.184 106.488 70.072C106.328 69.976 106.24 69.856 106.224 69.712L106.344 69.52C106.408 69.52 106.552 69.544 106.776 69.592C106.952 69.656 107.096 69.688 107.208 69.688C107.56 69.688 107.872 69.552 108.144 69.28C108.416 68.992 108.624 68.624 108.768 68.176C108.992 67.344 109.104 66.56 109.104 65.824C109.104 64.72 108.768 63.536 108.096 62.272C107.68 61.536 107.36 60.952 107.136 60.52C106.912 60.088 106.712 59.592 106.536 59.032C106.328 58.376 106.224 57.744 106.224 57.136C106.224 56.56 106.368 55.88 106.656 55.096C106.8 54.728 107 54.432 107.256 54.208C107.528 53.968 107.816 53.848 108.12 53.848C108.328 53.848 108.528 53.92 108.72 54.064C108.928 54.208 109.032 54.36 109.032 54.52C109.032 54.648 108.928 54.712 108.72 54.712C108.656 54.712 108.576 54.688 108.48 54.64C108.384 54.592 108.296 54.568 108.216 54.568C107.976 54.568 107.76 54.664 107.568 54.856C107.376 55.048 107.232 55.296 107.136 55.6C106.944 56.192 106.848 56.736 106.848 57.232C106.848 57.536 106.888 57.848 106.968 58.168C106.984 58.264 107 58.344 107.016 58.408C107.032 58.472 107.04 58.52 107.04 58.552L107.184 59.032L107.304 59.464L107.496 59.896C107.544 60.008 107.592 60.112 107.64 60.208C107.704 60.288 107.76 60.368 107.808 60.448L108.096 60.952C108.16 61.048 108.296 61.28 108.504 61.648C108.712 62 108.904 62.376 109.08 62.776C109.24 63.112 109.36 63.432 109.44 63.736C109.52 64.024 109.592 64.376 109.656 64.792C109.704 65.192 109.728 65.632 109.728 66.112C109.728 66.88 109.624 67.6 109.416 68.272C109.128 69.072 108.712 69.632 108.168 69.952C107.864 70.144 107.512 70.24 107.112 70.24L106.992 70.288ZM108.912 54.64C108.912 54.624 108.904 54.616 108.888 54.616V54.64H108.912ZM114.218 69.664L114.194 68.776C114.178 68.52 114.17 68.232 114.17 67.912C114.17 67.752 114.178 67.616 114.194 67.504L114.218 67.072C114.218 66.912 114.186 66.72 114.122 66.496C114.122 65.424 114.042 63.432 113.882 60.52C113.722 57.704 113.634 55.792 113.618 54.784C112.626 54.784 111.962 54.76 111.626 54.712C111.306 54.632 111.146 54.504 111.146 54.328C111.226 54.152 111.378 54.064 111.602 54.064C112.082 54.064 112.778 54.096 113.69 54.16C114.522 54.24 115.218 54.28 115.778 54.28H116.282L116.786 54.256C117.074 54.256 117.218 54.36 117.218 54.568C117.218 54.664 117.162 54.744 117.05 54.808C116.954 54.856 116.834 54.88 116.69 54.88C116.37 54.88 116.034 54.864 115.682 54.832L114.65 54.784C114.586 54.784 114.554 54.808 114.554 54.856C114.538 54.904 114.53 55.056 114.53 55.312C114.53 56.864 114.626 59.216 114.818 62.368C114.994 65.632 115.082 67.976 115.082 69.4C115.082 69.512 115.01 69.616 114.866 69.712C114.738 69.808 114.61 69.856 114.482 69.856L114.218 69.664ZM122.255 70.456C120.383 70.456 119.447 67.512 119.447 61.624V60.784C119.447 56.32 120.023 54.088 121.175 54.088C121.255 54.088 121.367 54.112 121.511 54.16C122.023 54.336 122.527 54.448 123.023 54.496C123.327 54.56 123.631 54.872 123.935 55.432C124.271 56.008 124.519 56.768 124.679 57.712C124.855 58.656 124.943 59.624 124.943 60.616L124.895 60.736C124.895 61.264 124.903 61.736 124.919 62.152L124.943 63.592C124.943 64.408 124.911 65.144 124.847 65.8C124.751 66.792 124.591 67.648 124.367 68.368C124.223 68.8 124.055 69.16 123.863 69.448C123.687 69.736 123.463 69.976 123.191 70.168C122.935 70.36 122.623 70.456 122.255 70.456ZM122.159 69.76C122.783 69.76 123.247 69.32 123.551 68.44C123.855 67.544 124.039 66.632 124.103 65.704C124.167 64.744 124.199 63.976 124.199 63.4C124.199 62.76 124.151 61.816 124.055 60.568C123.975 59.176 123.935 58.232 123.935 57.736L123.839 57.544L123.887 57.424C123.887 56.72 123.687 56.112 123.287 55.6C122.903 55.088 122.431 54.832 121.871 54.832C121.135 54.832 120.695 55.184 120.551 55.888C120.519 56.128 120.487 56.472 120.455 56.92C120.455 58.104 120.407 58.912 120.311 59.344C120.311 59.584 120.287 59.96 120.239 60.472L120.191 61.6C120.191 61.952 120.199 62.264 120.215 62.536L120.239 63.496C120.239 64.248 120.303 65.112 120.431 66.088C120.527 66.808 120.639 67.416 120.767 67.912C120.895 68.408 121.079 68.832 121.319 69.184C121.559 69.568 121.839 69.76 122.159 69.76ZM131.728 70.288C131.536 70.08 131.328 69.528 131.104 68.632C130.88 67.736 130.672 66.728 130.48 65.608C130.352 64.696 130.168 63.792 129.928 62.896C129.736 62.096 129.552 61.696 129.376 61.696H129.304C128.952 61.696 128.776 61.808 128.776 62.032C128.776 63.184 128.84 64.936 128.968 67.288C129.032 68.728 129.104 69.568 129.184 69.808L128.992 70.216H128.656L128.464 70.024C128.208 62.632 128.08 57.592 128.08 54.904C128.08 54.728 128.088 54.584 128.104 54.472C128.136 54.36 128.192 54.256 128.272 54.16C128.336 54.048 128.448 53.992 128.608 53.992C129.424 53.992 130.08 54.192 130.576 54.592C131.072 54.992 131.32 55.568 131.32 56.32V58.072C131.32 58.376 131.216 58.784 131.008 59.296C130.816 59.808 130.6 60.28 130.36 60.712L130.048 61.312C130.224 62.128 130.568 63.6 131.08 65.728C131.608 67.84 131.896 68.96 131.944 69.088C131.96 69.104 131.976 69.144 131.992 69.208C132.024 69.272 132.08 69.368 132.16 69.496C132.272 69.72 132.328 69.912 132.328 70.072C132.328 70.296 132.24 70.408 132.064 70.408L131.728 70.288ZM128.896 61.096C129.2 61.096 129.472 60.944 129.712 60.64C129.952 60.336 130.144 59.944 130.288 59.464C130.544 58.488 130.672 57.712 130.672 57.136C130.672 56.768 130.648 56.464 130.6 56.224C130.568 55.984 130.504 55.728 130.408 55.456C130.216 54.896 129.76 54.616 129.04 54.616C128.96 54.616 128.896 54.688 128.848 54.832C128.8 54.96 128.776 55.096 128.776 55.24C128.776 56.312 128.792 57.28 128.824 58.144C128.84 59.008 128.848 59.976 128.848 61.048L128.896 61.096ZM135.473 70.312C135.185 70.312 135.025 70.144 134.993 69.808V69.496C135.009 69.416 135.017 69.32 135.017 69.208L134.921 69.112C135.049 68.776 135.113 68.448 135.113 68.128C135.113 67.76 135.089 67.232 135.041 66.544L134.993 64.96C134.993 64.16 135.017 62.96 135.065 61.36C135.129 59.936 135.161 58.728 135.161 57.736L135.113 56.296C135.081 55.864 135.065 55.384 135.065 54.856C135.065 54.616 135.121 54.448 135.233 54.352C135.345 54.24 135.521 54.184 135.761 54.184C135.921 54.184 136.049 54.232 136.145 54.328C136.177 54.344 136.409 54.376 136.841 54.424C137.241 54.472 137.585 54.544 137.873 54.64C138.177 54.736 138.329 54.856 138.329 55C138.329 55.16 138.177 55.32 137.873 55.48C136.961 55.176 136.313 55.024 135.929 55.024L135.809 55.168C135.825 55.312 135.833 55.656 135.833 56.2C135.833 56.888 135.817 57.504 135.785 58.048C135.769 58.608 135.761 59.232 135.761 59.92C135.761 60.368 135.873 60.592 136.097 60.592L136.481 60.568C136.609 60.552 136.745 60.544 136.889 60.544C137.513 60.544 137.825 60.688 137.825 60.976C137.825 61.152 137.785 61.304 137.705 61.432C137.625 61.544 137.505 61.6 137.345 61.6C137.105 61.6 136.921 61.536 136.793 61.408L136.025 61.288H135.905L135.785 61.408V61.48C135.817 61.752 135.833 62.384 135.833 63.376C135.833 64 135.825 64.568 135.809 65.08L135.785 66.784C135.785 67.408 135.809 68.048 135.857 68.704C135.873 69.072 135.953 69.32 136.097 69.448C136.241 69.56 136.505 69.616 136.889 69.616L137.321 69.592C137.465 69.576 137.625 69.568 137.801 69.568C138.265 69.568 138.497 69.672 138.497 69.88C138.497 70.168 138.145 70.312 137.441 70.312H135.473ZM145.283 69.976C145.443 68.52 145.523 66.576 145.523 64.144C145.523 63.072 145.571 61.456 145.667 59.296C145.779 57.296 145.835 55.688 145.835 54.472C145.835 54.328 145.899 54.216 146.027 54.136C146.171 54.056 146.331 54.016 146.507 54.016C147.067 54.016 147.683 54.08 148.355 54.208C149.027 54.336 149.363 54.504 149.363 54.712C149.363 54.984 149.083 55.12 148.523 55.12C148.171 54.96 147.723 54.88 147.179 54.88L146.891 54.904C146.843 54.92 146.803 54.944 146.771 54.976C146.755 55.008 146.739 55.056 146.723 55.12C146.691 55.248 146.659 55.336 146.627 55.384C146.627 56.104 146.595 56.952 146.531 57.928C146.451 58.872 146.411 59.712 146.411 60.448V61.288C146.411 61.352 146.539 61.376 146.795 61.36C147.611 61.36 148.019 61.488 148.019 61.744C148.019 61.872 147.955 61.984 147.827 62.08C147.715 62.16 147.587 62.2 147.443 62.2C147.347 62.2 147.211 62.176 147.035 62.128C146.875 62.08 146.739 62.056 146.627 62.056C146.339 62.056 146.195 62.448 146.195 63.232V65.944C146.195 66.328 146.219 66.896 146.267 67.648C146.315 68.416 146.339 68.992 146.339 69.376C146.339 70.016 146.147 70.336 145.763 70.336L145.283 69.976ZM154.294 70.456C152.422 70.456 151.486 67.512 151.486 61.624V60.784C151.486 56.32 152.062 54.088 153.214 54.088C153.294 54.088 153.406 54.112 153.55 54.16C154.062 54.336 154.566 54.448 155.062 54.496C155.366 54.56 155.67 54.872 155.974 55.432C156.31 56.008 156.558 56.768 156.718 57.712C156.894 58.656 156.982 59.624 156.982 60.616L156.934 60.736C156.934 61.264 156.942 61.736 156.958 62.152L156.982 63.592C156.982 64.408 156.95 65.144 156.886 65.8C156.79 66.792 156.63 67.648 156.406 68.368C156.262 68.8 156.094 69.16 155.902 69.448C155.726 69.736 155.502 69.976 155.23 70.168C154.974 70.36 154.662 70.456 154.294 70.456ZM154.198 69.76C154.822 69.76 155.286 69.32 155.59 68.44C155.894 67.544 156.078 66.632 156.142 65.704C156.206 64.744 156.238 63.976 156.238 63.4C156.238 62.76 156.19 61.816 156.094 60.568C156.014 59.176 155.974 58.232 155.974 57.736L155.878 57.544L155.926 57.424C155.926 56.72 155.726 56.112 155.326 55.6C154.942 55.088 154.47 54.832 153.91 54.832C153.174 54.832 152.734 55.184 152.59 55.888C152.558 56.128 152.526 56.472 152.494 56.92C152.494 58.104 152.446 58.912 152.35 59.344C152.35 59.584 152.326 59.96 152.278 60.472L152.23 61.6C152.23 61.952 152.238 62.264 152.254 62.536L152.278 63.496C152.278 64.248 152.342 65.112 152.47 66.088C152.566 66.808 152.678 67.416 152.806 67.912C152.934 68.408 153.118 68.832 153.358 69.184C153.598 69.568 153.878 69.76 154.198 69.76ZM163.767 70.288C163.575 70.08 163.367 69.528 163.143 68.632C162.919 67.736 162.711 66.728 162.519 65.608C162.391 64.696 162.207 63.792 161.967 62.896C161.775 62.096 161.591 61.696 161.415 61.696H161.343C160.991 61.696 160.815 61.808 160.815 62.032C160.815 63.184 160.879 64.936 161.007 67.288C161.071 68.728 161.143 69.568 161.223 69.808L161.031 70.216H160.695L160.503 70.024C160.247 62.632 160.119 57.592 160.119 54.904C160.119 54.728 160.127 54.584 160.143 54.472C160.175 54.36 160.231 54.256 160.311 54.16C160.375 54.048 160.487 53.992 160.647 53.992C161.463 53.992 162.119 54.192 162.615 54.592C163.111 54.992 163.359 55.568 163.359 56.32V58.072C163.359 58.376 163.255 58.784 163.047 59.296C162.855 59.808 162.639 60.28 162.399 60.712L162.087 61.312C162.263 62.128 162.607 63.6 163.119 65.728C163.647 67.84 163.935 68.96 163.983 69.088C163.999 69.104 164.015 69.144 164.031 69.208C164.063 69.272 164.119 69.368 164.199 69.496C164.311 69.72 164.367 69.912 164.367 70.072C164.367 70.296 164.279 70.408 164.103 70.408L163.767 70.288ZM160.935 61.096C161.239 61.096 161.511 60.944 161.751 60.64C161.991 60.336 162.183 59.944 162.327 59.464C162.583 58.488 162.711 57.712 162.711 57.136C162.711 56.768 162.687 56.464 162.639 56.224C162.607 55.984 162.543 55.728 162.447 55.456C162.255 54.896 161.799 54.616 161.079 54.616C160.999 54.616 160.935 54.688 160.887 54.832C160.839 54.96 160.815 55.096 160.815 55.24C160.815 56.312 160.831 57.28 160.863 58.144C160.879 59.008 160.887 59.976 160.887 61.048L160.935 61.096ZM175.478 70.264C175.478 70.104 175.238 70.024 174.758 70.024C174.678 67.064 174.638 64.92 174.638 63.592L174.566 63.496L174.662 63.28C174.662 62.992 174.63 62.696 174.566 62.392L174.206 62.296C174.062 62.344 173.902 62.368 173.726 62.368C173.598 62.368 173.334 62.328 172.934 62.248C172.662 62.168 172.414 62.128 172.19 62.128L171.926 62.224C171.926 62.784 171.918 63.288 171.902 63.736C171.886 64.184 171.878 64.688 171.878 65.248L171.926 65.344C171.926 65.792 171.95 66.464 171.998 67.36C172.046 68.24 172.07 68.904 172.07 69.352C172.07 69.528 172.038 69.68 171.974 69.808C171.91 69.92 171.814 69.976 171.686 69.976C171.334 69.976 171.158 69.496 171.158 68.536C171.158 67.72 171.166 66.984 171.182 66.328L171.206 64.144C171.206 62.688 171.182 61.904 171.134 61.792C171.214 61.632 171.254 61.104 171.254 60.208C171.254 59.44 171.222 58.504 171.158 57.4L171.11 56.464L171.062 54.592C171.062 54.48 171.102 54.376 171.182 54.28C171.262 54.184 171.358 54.136 171.47 54.136C171.79 54.136 171.95 54.6 171.95 55.528C171.95 56.616 171.942 57.6 171.926 58.48C171.894 59.36 171.878 60.328 171.878 61.384C171.878 61.576 172.486 61.672 173.702 61.672H173.798C174.102 61.672 174.318 61.616 174.446 61.504C174.59 61.376 174.662 61.168 174.662 60.88C174.662 60.032 174.606 58.928 174.494 57.568C174.398 56.096 174.35 54.992 174.35 54.256C174.35 54.16 174.39 54.08 174.47 54.016C174.55 53.936 174.646 53.896 174.758 53.896L174.974 53.968C175.086 53.984 175.158 54.008 175.19 54.04C175.19 55.288 175.238 57.152 175.334 59.632C175.43 62.128 175.478 64 175.478 65.248C175.478 67.136 175.534 68.72 175.646 70L175.478 70.264ZM173.966 61.336L174.014 61.384H173.966V61.336ZM181.505 70.456C179.633 70.456 178.697 67.512 178.697 61.624V60.784C178.697 56.32 179.273 54.088 180.425 54.088C180.505 54.088 180.617 54.112 180.761 54.16C181.273 54.336 181.777 54.448 182.273 54.496C182.577 54.56 182.881 54.872 183.185 55.432C183.521 56.008 183.769 56.768 183.929 57.712C184.105 58.656 184.193 59.624 184.193 60.616L184.145 60.736C184.145 61.264 184.153 61.736 184.169 62.152L184.193 63.592C184.193 64.408 184.161 65.144 184.097 65.8C184.001 66.792 183.841 67.648 183.617 68.368C183.473 68.8 183.305 69.16 183.113 69.448C182.937 69.736 182.713 69.976 182.441 70.168C182.185 70.36 181.873 70.456 181.505 70.456ZM181.409 69.76C182.033 69.76 182.497 69.32 182.801 68.44C183.105 67.544 183.289 66.632 183.353 65.704C183.417 64.744 183.449 63.976 183.449 63.4C183.449 62.76 183.401 61.816 183.305 60.568C183.225 59.176 183.185 58.232 183.185 57.736L183.089 57.544L183.137 57.424C183.137 56.72 182.937 56.112 182.537 55.6C182.153 55.088 181.681 54.832 181.121 54.832C180.385 54.832 179.945 55.184 179.801 55.888C179.769 56.128 179.737 56.472 179.705 56.92C179.705 58.104 179.657 58.912 179.561 59.344C179.561 59.584 179.537 59.96 179.489 60.472L179.441 61.6C179.441 61.952 179.449 62.264 179.465 62.536L179.489 63.496C179.489 64.248 179.553 65.112 179.681 66.088C179.777 66.808 179.889 67.416 180.017 67.912C180.145 68.408 180.329 68.832 180.569 69.184C180.809 69.568 181.089 69.76 181.409 69.76ZM196.786 71.248C196.466 71.248 196.306 70.736 196.306 69.712V68.128C196.306 65.824 196.258 64.024 196.162 62.728L196.09 61.84C196.026 61.44 195.994 61.088 195.994 60.784C195.994 60.24 196.01 59.744 196.042 59.296L196.09 57.808C196.09 57.312 196.058 56.936 195.994 56.68C195.674 56.904 194.706 60.272 193.09 66.784L193.066 67.144C193.018 67.544 192.954 67.864 192.874 68.104C192.826 68.28 192.754 68.416 192.658 68.512C192.578 68.608 192.482 68.656 192.37 68.656C192.114 68.656 191.93 68.592 191.818 68.464C191.706 68.336 191.65 68.136 191.65 67.864C191.65 67.432 191.442 66.312 191.026 64.504C190.626 62.696 190.186 60.96 189.706 59.296C189.242 57.632 188.922 56.712 188.746 56.536C188.73 57.096 188.666 58.416 188.554 60.496C188.33 64.176 188.218 67.072 188.218 69.184L188.242 70.144C188.178 70.352 188.01 70.456 187.738 70.456C187.69 70.456 187.61 70.408 187.498 70.312C187.386 70.232 187.33 70.168 187.33 70.12C187.33 68.68 187.458 66.152 187.714 62.536C187.954 59.176 188.074 56.656 188.074 54.976C188.074 54.896 188.058 54.816 188.026 54.736C187.978 54.64 187.954 54.568 187.954 54.52C187.954 54.28 188.162 54.16 188.578 54.16C188.85 54.16 189.01 54.28 189.058 54.52C189.122 54.84 189.154 55.08 189.154 55.24L189.178 55.528C189.258 55.944 189.49 56.584 189.874 57.448C190.178 58.136 190.41 58.736 190.57 59.248C190.666 59.632 190.754 59.944 190.834 60.184C191.09 61.112 191.258 61.8 191.338 62.248L191.65 62.872C191.698 63.112 191.794 63.504 191.938 64.048C192.082 64.656 192.186 65.152 192.25 65.536C192.314 65.92 192.346 66.288 192.346 66.64C192.522 66.368 193.018 64.736 193.834 61.744C194.666 58.736 195.154 56.816 195.298 55.984C195.314 55.952 195.322 55.912 195.322 55.864C195.338 55.8 195.354 55.72 195.37 55.624C195.402 55.416 195.474 55.104 195.586 54.688C195.714 54.368 195.906 54.208 196.162 54.208C196.274 54.208 196.402 54.256 196.546 54.352C196.69 54.448 196.762 54.544 196.762 54.64C196.762 61.312 196.866 64.84 197.074 65.224V66.472C197.058 66.84 197.05 67.264 197.05 67.744C197.05 68.768 197.106 69.536 197.218 70.048C197.234 70.064 197.242 70.088 197.242 70.12C197.258 70.152 197.274 70.192 197.29 70.24C197.306 70.304 197.314 70.376 197.314 70.456C197.314 70.632 197.258 70.808 197.146 70.984C197.05 71.16 196.93 71.248 196.786 71.248ZM195.994 56.536H195.97L195.922 56.56L195.994 56.584V56.536ZM201.379 70.312C201.091 70.312 200.931 70.144 200.899 69.808V69.496C200.915 69.416 200.923 69.32 200.923 69.208L200.827 69.112C200.955 68.776 201.019 68.448 201.019 68.128C201.019 67.76 200.995 67.232 200.947 66.544L200.899 64.96C200.899 64.16 200.923 62.96 200.971 61.36C201.035 59.936 201.067 58.728 201.067 57.736L201.019 56.296C200.987 55.864 200.971 55.384 200.971 54.856C200.971 54.616 201.027 54.448 201.139 54.352C201.251 54.24 201.427 54.184 201.667 54.184C201.827 54.184 201.955 54.232 202.051 54.328C202.083 54.344 202.315 54.376 202.747 54.424C203.147 54.472 203.491 54.544 203.779 54.64C204.083 54.736 204.235 54.856 204.235 55C204.235 55.16 204.083 55.32 203.779 55.48C202.867 55.176 202.219 55.024 201.835 55.024L201.715 55.168C201.731 55.312 201.739 55.656 201.739 56.2C201.739 56.888 201.723 57.504 201.691 58.048C201.675 58.608 201.667 59.232 201.667 59.92C201.667 60.368 201.779 60.592 202.003 60.592L202.387 60.568C202.515 60.552 202.651 60.544 202.795 60.544C203.419 60.544 203.731 60.688 203.731 60.976C203.731 61.152 203.691 61.304 203.611 61.432C203.531 61.544 203.411 61.6 203.251 61.6C203.011 61.6 202.827 61.536 202.699 61.408L201.931 61.288H201.811L201.691 61.408V61.48C201.723 61.752 201.739 62.384 201.739 63.376C201.739 64 201.731 64.568 201.715 65.08L201.691 66.784C201.691 67.408 201.715 68.048 201.763 68.704C201.779 69.072 201.859 69.32 202.003 69.448C202.147 69.56 202.411 69.616 202.795 69.616L203.227 69.592C203.371 69.576 203.531 69.568 203.707 69.568C204.171 69.568 204.403 69.672 204.403 69.88C204.403 70.168 204.051 70.312 203.347 70.312H201.379Z" fill="black"/>
</svg>
