<svg width="80" height="92" xmlns="http://www.w3.org/2000/svg" xmlns:xlink="http://www.w3.org/1999/xlink" xmlns:svgjs="http://svgjs.com/svgjs" viewBox="0.064 0 79.871 92" fill="#3c3c3c"><svg xmlns="http://www.w3.org/2000/svg" width="80" height="92" viewBox="1.989 1.013 78.992 90.987"><path paint-order="stroke fill markers" fill-rule="evenodd" d="M23.756 39.114c-.402 0-.803-.152-1.11-.457L19.55 35.58a1.552 1.552 0 0 1 0-2.205 1.577 1.577 0 0 1 2.22 0l1.988 1.975 5.086-5.052a1.577 1.577 0 0 1 2.22 0 1.552 1.552 0 0 1 0 2.205l-6.196 6.154c-.308.305-.71.457-1.111.457zm32.555-3.077H37.637c-.866 0-1.57-.698-1.57-1.559s.704-1.559 1.57-1.559h18.674c.866 0 1.57.698 1.57 1.559s-.703 1.559-1.57 1.559zM23.756 65.794c-.402 0-.803-.152-1.11-.456L19.55 62.26a1.553 1.553 0 0 1 0-2.206 1.577 1.577 0 0 1 2.22 0l1.988 1.976 5.086-5.052a1.577 1.577 0 0 1 2.22 0 1.553 1.553 0 0 1 0 2.205l-6.196 6.155c-.308.304-.71.455-1.111.455zm32.555-3.077H37.637c-.866 0-1.57-.697-1.57-1.558 0-.862.704-1.56 1.57-1.56h18.674c.866 0 1.57.698 1.57 1.56 0 .86-.703 1.558-1.57 1.558zm-32.555 16.42c-.402 0-.803-.153-1.11-.457l-3.097-3.078a1.552 1.552 0 0 1 0-2.205 1.577 1.577 0 0 1 2.22 0l1.988 1.976 5.086-5.052a1.577 1.577 0 0 1 2.22 0 1.551 1.551 0 0 1 0 2.205l-6.196 6.154a1.58 1.58 0 0 1-1.111.457zm32.555-3.079H37.637c-.866 0-1.57-.698-1.57-1.559s.704-1.559 1.57-1.559h18.674c.866 0 1.57.698 1.57 1.56 0 .86-.703 1.558-1.57 1.558zM23.756 52.454a1.57 1.57 0 0 1-1.11-.457L19.55 48.92a1.552 1.552 0 0 1 0-2.205 1.577 1.577 0 0 1 2.22 0l1.988 1.974 5.086-5.051a1.577 1.577 0 0 1 2.22 0 1.551 1.551 0 0 1 0 2.205l-6.196 6.154c-.308.305-.71.457-1.111.457zm32.555-3.076H37.637c-.866 0-1.57-.698-1.57-1.56 0-.86.704-1.558 1.57-1.558h18.674c.866 0 1.57.698 1.57 1.559s-.703 1.56-1.57 1.56zm22.577-36.973H60.422c-.22-3.18-2.888-5.686-6.141-5.686h-5.985c-.042-3.149-2.626-5.706-5.816-5.706-3.18 0-5.775 2.557-5.807 5.706H30.68c-3.244 0-5.912 2.505-6.131 5.686H4.08a2.085 2.085 0 0 0-2.092 2.078v75.438c0 1.154.931 2.08 2.092 2.08h74.807a2.079 2.079 0 0 0 2.093-2.08V14.483a2.085 2.085 0 0 0-2.093-2.078zm-50.177.437c0-1.081.88-1.965 1.968-1.965h6.539c2.008 0 3.64-1.622 3.64-3.606v-.478a1.627 1.627 0 0 1 3.255 0v.478c0 1.986 1.632 3.606 3.63 3.606h6.539a1.97 1.97 0 0 1 1.977 1.965v4.26H28.713v-4.26h-.002zm48.085 75H6.173v-71.28h18.353v2.619c0 1.154.931 2.079 2.092 2.079H58.35a2.078 2.078 0 0 0 2.092-2.079v-2.619h16.353v71.28h.002zM42.485 11.14c1.11 0 2.01.894 2.01 1.997 0 1.102-.9 1.996-2.01 1.996-1.11 0-2.01-.894-2.01-1.996 0-1.103.9-1.997 2.01-1.997z"/></svg></svg>