<svg width="81" height="84" xmlns="http://www.w3.org/2000/svg" xmlns:xlink="http://www.w3.org/1999/xlink" xmlns:svgjs="http://svgjs.com/svgjs" viewBox="0.042 0 80.917 84" fill="#3c3c3c"><svg xmlns="http://www.w3.org/2000/svg" width="81" height="84" viewBox="1.999 1.989 79.982 83.029"><path paint-order="stroke fill markers" fill-rule="evenodd" d="M79.956 1.989H68.032c-1.125 0-2.025.9-2.025 2.025v4.163H17.86V4.014c0-1.125-.9-2.025-2.024-2.025H4.024c-1.125 0-2.025.9-2.025 2.025v12.263c0 1.125.9 2.025 2.025 2.025h11.924c1.125 0 2.025-.9 2.025-2.025v-4.163h22.161c-.225 4.95-12.262 28.24-19.911 41.965-.45.788-.225 1.8.45 2.475 6.862 5.85 8.55 11.589 9 14.513h-2.588c-1.125 0-2.025.9-2.025 2.026v9.9c0 1.125.9 2.025 2.025 2.025h29.923c1.125 0 2.025-.9 2.025-2.025v-9.9c0-1.126-.9-2.026-2.025-2.026H54.42c.45-2.924 2.138-8.663 9-14.513.675-.562.9-1.687.45-2.475-7.65-13.725-19.686-37.127-19.911-41.965h22.048v4.163c0 1.125.9 2.025 2.025 2.025h11.924c1.125 0 2.025-.9 2.025-2.025V4.014c0-1.125-.9-2.025-2.025-2.025zM13.923 14.252H5.936V5.926h7.987v8.326zm28.123 32.964c1.463 0 2.588 1.125 2.588 2.588s-1.125 2.588-2.588 2.588c-1.462 0-2.587-1.125-2.587-2.588 0-1.35 1.237-2.588 2.587-2.588zm13.05 33.64H29.11v-5.963H55.096v5.962zm-4.613-9.901H33.61c-.45-3.263-2.137-9.788-9.224-16.426 2.7-4.95 10.8-19.8 15.636-30.827v19.914c-2.587.788-4.5 3.262-4.5 6.188a6.53 6.53 0 0 0 6.525 6.525 6.53 6.53 0 0 0 6.525-6.525c0-2.926-1.913-5.288-4.5-6.188V23.59c4.95 11.026 12.937 25.876 15.636 30.939-7.086 6.638-8.774 13.163-9.224 16.426zm27.56-56.703h-7.986v-3.713-.337-.338V6.04h7.987v8.213z"/></svg></svg>