<svg width="80" height="77" xmlns="http://www.w3.org/2000/svg" xmlns:xlink="http://www.w3.org/1999/xlink" xmlns:svgjs="http://svgjs.com/svgjs" viewBox="0 0.018 80 76.963" fill="#3c3c3c"><svg xmlns="http://www.w3.org/2000/svg" width="80" height="77" viewBox="1.998 1.994 79.002 76.003"><path paint-order="stroke fill markers" fill-rule="evenodd" d="M78.921 77.997H4.078a2.09 2.09 0 0 1-2.08-2.098V14.982c0-1.16.93-2.099 2.08-2.099H78.92a2.09 2.09 0 0 1 2.08 2.099v60.917a2.09 2.09 0 0 1-2.08 2.098zM6.156 73.8h70.686V17.08H6.156V73.8zM78.92 17.08H4.078a2.088 2.088 0 0 1-2.08-2.098V4.093c0-1.159.93-2.099 2.08-2.099H78.92a2.09 2.09 0 0 1 2.08 2.1v10.888a2.09 2.09 0 0 1-2.08 2.098zM6.156 12.884h70.686V6.192H6.156v6.692zm5.025-4.815c.803 0 1.454.658 1.454 1.468 0 .811-.651 1.468-1.454 1.468a1.461 1.461 0 0 1-1.455-1.468c0-.81.651-1.468 1.455-1.468zm4.35.001a1.46 1.46 0 0 1 1.454 1.467c0 .81-.651 1.467-1.454 1.467a1.46 1.46 0 0 1-1.453-1.467c0-.81.65-1.467 1.453-1.467zm4.35 0c.803 0 1.454.657 1.454 1.467 0 .811-.65 1.468-1.454 1.468a1.461 1.461 0 0 1-1.454-1.468c0-.81.651-1.468 1.454-1.468zm11.164 43.107c-.466 0-.93-.18-1.286-.539l-5.66-5.712a1.849 1.849 0 0 1 0-2.597l5.65-5.704a1.807 1.807 0 0 1 2.572 0c.71.717.71 1.879 0 2.596l-4.364 4.407 4.374 4.415c.71.717.71 1.88 0 2.596-.355.358-.82.538-1.286.538zm20.917 0c-.465 0-.932-.18-1.286-.539a1.847 1.847 0 0 1 0-2.596l4.365-4.406-4.375-4.415a1.85 1.85 0 0 1 0-2.597 1.807 1.807 0 0 1 2.572 0l5.66 5.713a1.842 1.842 0 0 1 0 2.596l-5.65 5.704a1.8 1.8 0 0 1-1.286.54zm-13.069 4.241c-.149 0-.301-.018-.452-.057a1.837 1.837 0 0 1-1.312-2.233l4.623-18.28a1.822 1.822 0 0 1 2.212-1.326 1.838 1.838 0 0 1 1.314 2.234l-4.624 18.28c-.21.83-.95 1.382-1.76 1.382z"/></svg></svg>