<svg width="24" height="38" xmlns="http://www.w3.org/2000/svg" xmlns:xlink="http://www.w3.org/1999/xlink" xmlns:svgjs="http://svgjs.com/svgjs" viewBox="0.193 0 23.613 38" fill="#fff"><svg xmlns="http://www.w3.org/2000/svg" width="24" height="38" viewBox="1.999 1.993 22.997 37.008"><path paint-order="stroke fill markers" fill-rule="evenodd" d="M13.497 11.757a1.66 1.66 0 0 0 0 3.318 1.66 1.66 0 0 0 0-3.318zm-.954-9.764C6.612 2.468 2 7.44 2 13.416V27.49c0 6.347 5.157 11.511 11.498 11.511 6.34 0 11.499-5.164 11.499-11.511V13.416c0-5.972-4.613-10.944-10.545-11.423h-1.908m.954 35.098c-5.288 0-9.59-4.306-9.59-9.601V13.416c0-5.295 4.301-9.601 9.59-9.601 5.288 0 9.59 4.306 9.59 9.6V27.49c0 5.295-4.302 9.601-9.59 9.601z"/></svg></svg>